<svg id="Layer_1" data-name="Layer 1" xmlns="http://www.w3.org/2000/svg" xmlns:xlink="http://www.w3.org/1999/xlink" viewBox="0 0 394.16 105.51"><defs><style>.cls-1{fill:url(#radial-gradient);}.cls-2{fill:url(#radial-gradient-2);}.cls-3{fill:url(#radial-gradient-3);}.cls-4{fill:url(#radial-gradient-4);}.cls-5{fill:url(#radial-gradient-5);}.cls-6{fill:url(#radial-gradient-6);}.cls-7{fill:url(#radial-gradient-7);}.cls-8{fill:url(#radial-gradient-8);}.cls-9{fill:url(#radial-gradient-9);}.cls-10{fill:url(#radial-gradient-10);}.cls-11{fill:url(#radial-gradient-11);}.cls-12{fill:url(#radial-gradient-12);}</style><radialGradient id="radial-gradient" cx="49.07" cy="86.4" r="196.8" gradientUnits="userSpaceOnUse"><stop offset="0" stop-color="#44c8f5"/><stop offset="0" stop-color="#43c7f4"/><stop offset="0.1" stop-color="#2ba9d6"/><stop offset="0.19" stop-color="#1892bf"/><stop offset="0.3" stop-color="#0a81af"/><stop offset="0.42" stop-color="#0377a5"/><stop offset="0.56" stop-color="#0074a2"/><stop offset="0.77" stop-color="#006996"/><stop offset="1" stop-color="#00628e"/></radialGradient><radialGradient id="radial-gradient-2" cx="49.07" cy="86.4" r="196.8" xlink:href="#radial-gradient"/><radialGradient id="radial-gradient-3" cx="49.07" cy="86.4" r="196.8" xlink:href="#radial-gradient"/><radialGradient id="radial-gradient-4" cx="348.41" cy="-27.47" r="254.31" gradientUnits="userSpaceOnUse"><stop offset="0" stop-color="#ffcb05"/><stop offset="0.12" stop-color="#fec316"/><stop offset="0.36" stop-color="#fcb534"/><stop offset="0.5" stop-color="#fbb040"/><stop offset="0.66" stop-color="#f99f41"/><stop offset="0.99" stop-color="#f37243"/><stop offset="1" stop-color="#f37043"/></radialGradient><radialGradient id="radial-gradient-5" cx="348.41" cy="-27.47" r="254.31" xlink:href="#radial-gradient-4"/><radialGradient id="radial-gradient-6" cx="348.41" cy="-27.47" r="254.31" xlink:href="#radial-gradient-4"/><radialGradient id="radial-gradient-7" cx="348.41" cy="-27.47" r="254.31" xlink:href="#radial-gradient-4"/><radialGradient id="radial-gradient-8" cx="348.41" cy="-27.47" r="254.31" xlink:href="#radial-gradient-4"/><radialGradient id="radial-gradient-9" cx="348.41" cy="-27.47" r="254.31" xlink:href="#radial-gradient-4"/><radialGradient id="radial-gradient-10" cx="348.41" cy="-27.47" r="254.31" xlink:href="#radial-gradient-4"/><radialGradient id="radial-gradient-11" cx="348.41" cy="-27.47" r="254.31" xlink:href="#radial-gradient-4"/><radialGradient id="radial-gradient-12" cx="49.07" cy="86.4" r="196.8" xlink:href="#radial-gradient"/></defs><title>LogoSUNSHINETV-2</title><path class="cls-1" d="M42.58,23.66a20.33,20.33,0,0,0-7.87,12.26q-1.49,7,1.41,10.87T46,51.58l6.31.93A4.61,4.61,0,0,1,55.58,54a3.81,3.81,0,0,1,.4,3.19Q54.95,62,47.19,62a22.19,22.19,0,0,1-6.43-.86,9.54,9.54,0,0,1-4.86-3L25.58,66.73a16.68,16.68,0,0,0,8,5.68,35.09,35.09,0,0,0,11,1.45,28,28,0,0,0,15.66-4.38,19.57,19.57,0,0,0,8.88-12.63Q70.79,48.92,67.64,45q-2.74-3.48-9.73-4.49l-6.34-.89A4.94,4.94,0,0,1,48.19,38a3,3,0,0,1-.52-2.53,5.55,5.55,0,0,1,2.22-3.38,8.68,8.68,0,0,1,5.39-1.63h2.11a18.49,18.49,0,0,1,2.53.3,8,8,0,0,1,4.9,2.89L75,25.3q-5.08-6.47-16.89-6.46a25.25,25.25,0,0,0-15.52,4.82"/><path class="cls-2" d="M101.32,32.5,96.12,57a7,7,0,0,1-2.82,4.57,6,6,0,0,1-3.38,1,4.07,4.07,0,0,1-2.89-1Q85.42,60.08,86.1,57l5.19-24.5H78.82L73.25,58.67a21.86,21.86,0,0,0-.56,6.17,10,10,0,0,0,2.2,5.53c1.83,2.33,4.63,3.49,8.42,3.49a15.81,15.81,0,0,0,10.32-3.79l-.7,3.34h12.18l8.68-40.91Z"/><path class="cls-3" d="M131.61,35.84l.71-3.34H120.14l-8.68,40.91h12.47L129.13,49A7.06,7.06,0,0,1,132,44.34a5.93,5.93,0,0,1,3.34-1,4.13,4.13,0,0,1,2.93,1q1.56,1.48.89,4.61L134,73.41h12.48L152,47.24a21.4,21.4,0,0,0,.55-6.16,10,10,0,0,0-2.18-5.53q-2.76-3.49-8.43-3.49a15.9,15.9,0,0,0-10.33,3.78"/><path class="cls-4" d="M163.81,35.43a15.58,15.58,0,0,0-7.24,10.14q-1.23,5.72,1.45,8.69c1.58,1.75,4.22,2.82,7.9,3.19l6.2.59a2.89,2.89,0,0,1,2.16,1,1.89,1.89,0,0,1,.26,1.63c-.2.94-1,1.65-2.45,2.12a10.25,10.25,0,0,1-3.46.56l-.89,0c-.37,0-.73,0-1.07,0a12.1,12.1,0,0,1-2.46-.37,8.76,8.76,0,0,1-4.82-3L149.62,68a14.19,14.19,0,0,0,7.62,5,25.5,25.5,0,0,0,4.38.75c1.14.07,2.64.11,4.53.11a24.94,24.94,0,0,0,13.14-3.3,15.67,15.67,0,0,0,7.5-10.51q1.11-5.16-1.15-8.39-2.46-3.49-8.47-4.08l-6.2-.64a4.21,4.21,0,0,1-1.52-.41,1.7,1.7,0,0,1-.67-.66,1.5,1.5,0,0,1,0-.71l0-.48A2.47,2.47,0,0,1,170,43.16a5.84,5.84,0,0,1,3.34-.86,19.8,19.8,0,0,1,4.64.45,6.15,6.15,0,0,1,3.49,2l9.32-7.68a11.87,11.87,0,0,0-6.2-4,31.86,31.86,0,0,0-8.84-1,21.79,21.79,0,0,0-11.95,3.37"/><path class="cls-5" d="M199.19,19.29,187.68,73.41h12.48l5.27-24.8a6.63,6.63,0,0,1,2.71-4.3,5.58,5.58,0,0,1,3.19-1,4,4,0,0,1,2.82,1q1.48,1.41.86,4.3l-5.27,24.8h12.47l5.64-26.54q1.38-6.54-1-10.51-2.57-4.3-8.91-4.3a15.19,15.19,0,0,0-9.8,3.78l3.53-16.55Z"/><path class="cls-6" d="M236.54,34.1l-8.35,39.31h12.47L249,34.1Zm3.23-15.26-2,9.5h12.47l2-9.5Z"/><path class="cls-7" d="M267.17,35.84l.71-3.34H255.7L247,73.41h12.48L264.69,49a7.06,7.06,0,0,1,2.86-4.61,5.91,5.91,0,0,1,3.34-1,4.13,4.13,0,0,1,2.93,1q1.56,1.48.89,4.61l-5.2,24.46H282l5.57-26.17a21.4,21.4,0,0,0,.55-6.16,9.91,9.91,0,0,0-2.19-5.53q-2.75-3.49-8.43-3.49a15.85,15.85,0,0,0-10.32,3.78"/><path class="cls-8" d="M305,45.49a6.79,6.79,0,0,1,6.09-3.19q4,0,4.71,3.19a6.89,6.89,0,0,1,0,3.2H303.67a8.36,8.36,0,0,1,1.34-3.2m-6.09-8q-6.35,5.64-8.43,15.48A27.46,27.46,0,0,0,290,63.69,11.3,11.3,0,0,0,293.2,70a12.47,12.47,0,0,0,5.65,3,25.05,25.05,0,0,0,6.64.78,26,26,0,0,0,9.62-1.67,29.67,29.67,0,0,0,7.64-4.79L316.93,60a17.08,17.08,0,0,1-4,2.53,13.92,13.92,0,0,1-5.23.89q-7.2,0-5.83-6.39h24.47l1.18-5.56q1.79-8.36-1.85-13.7-3.82-5.68-12.4-5.68a21,21,0,0,0-14.37,5.42"/><path class="cls-9" d="M192.93,10.21C157.55,14.29,125.15,20.9,99,28.77a579.92,579.92,0,0,1,79-13.4c90-9.25,165,1.65,167.46,24.35.8,7.47-6.35,15.28-19.51,22.74C348.74,52.68,361.85,42,360.65,32c-2-16.35-42.4-26-99-26a604.44,604.44,0,0,0-68.74,4.16"/><polygon class="cls-10" points="347.25 0 345.39 6.93 352.61 6.93 347.9 24.5 356.09 24.5 360.8 6.93 368.01 6.93 369.87 0 347.25 0"/><polygon class="cls-11" points="385.13 0 376.68 13.75 375.61 0 366.44 0 369.76 24.67 377.61 24.67 394.16 0 385.13 0"/><path class="cls-12" d="M.08,79.52C2.8,102,77.89,111.74,167.8,101.36c35.38-4.09,67.78-10.7,93.91-18.57a580,580,0,0,1-79,13.4c-90,9.25-165-1.65-167.47-24.35-.81-7.47,6.35-15.28,19.51-22.74C12,58.88-1.13,69.61.08,79.52"/></svg>