<svg id="Layer_1" data-name="Layer 1" xmlns="http://www.w3.org/2000/svg" xmlns:xlink="http://www.w3.org/1999/xlink" viewBox="0 0 399.77 107.01"><defs><style>.cls-1{fill:url(#Nueva_muestra_de_degradado_7);}.cls-2{fill:url(#Nueva_muestra_de_degradado_7-2);}.cls-3{fill:url(#Nueva_muestra_de_degradado_7-3);}.cls-4{fill:url(#Nueva_muestra_de_degradado_7-4);}.cls-5{fill:url(#Nueva_muestra_de_degradado_7-5);}.cls-6{fill:url(#Nueva_muestra_de_degradado_7-6);}.cls-7{fill:url(#Nueva_muestra_de_degradado_7-7);}.cls-8{fill:url(#Nueva_muestra_de_degradado_7-8);}.cls-9{fill:url(#Nueva_muestra_de_degradado_7-9);}.cls-10{fill:url(#Nueva_muestra_de_degradado_7-10);}.cls-11{fill:url(#Nueva_muestra_de_degradado_7-11);}.cls-12{fill:url(#Nueva_muestra_de_degradado_7-12);}</style><linearGradient id="Nueva_muestra_de_degradado_7" x1="339.43" y1="-172.74" x2="-164.57" y2="213.26" gradientUnits="userSpaceOnUse"><stop offset="0" stop-color="#fded81"/><stop offset="0.05" stop-color="#b78b3a"/><stop offset="0.2" stop-color="#fff0a5"/><stop offset="0.3" stop-color="#be9746"/><stop offset="0.51" stop-color="#f0e79a"/><stop offset="0.56" stop-color="#e5d488"/><stop offset="0.64" stop-color="#d7bd71"/><stop offset="0.69" stop-color="#d2b469"/><stop offset="0.77" stop-color="#fff0a5"/><stop offset="0.92" stop-color="#be9746"/><stop offset="1" stop-color="#fff0a5"/></linearGradient><linearGradient id="Nueva_muestra_de_degradado_7-2" x1="357.73" y1="-148.83" x2="-146.27" y2="237.17" xlink:href="#Nueva_muestra_de_degradado_7"/><linearGradient id="Nueva_muestra_de_degradado_7-3" x1="373.23" y1="-128.6" x2="-130.77" y2="257.4" xlink:href="#Nueva_muestra_de_degradado_7"/><linearGradient id="Nueva_muestra_de_degradado_7-4" x1="387.6" y1="-109.83" x2="-116.4" y2="276.17" xlink:href="#Nueva_muestra_de_degradado_7"/><linearGradient id="Nueva_muestra_de_degradado_7-5" x1="399.02" y1="-94.93" x2="-104.98" y2="291.07" xlink:href="#Nueva_muestra_de_degradado_7"/><linearGradient id="Nueva_muestra_de_degradado_7-6" x1="409.98" y1="-80.62" x2="-94.02" y2="305.38" xlink:href="#Nueva_muestra_de_degradado_7"/><linearGradient id="Nueva_muestra_de_degradado_7-7" x1="424.06" y1="-62.24" x2="-79.94" y2="323.76" xlink:href="#Nueva_muestra_de_degradado_7"/><linearGradient id="Nueva_muestra_de_degradado_7-8" x1="439.54" y1="-42.02" x2="-64.46" y2="343.98" xlink:href="#Nueva_muestra_de_degradado_7"/><linearGradient id="Nueva_muestra_de_degradado_7-9" x1="400.59" y1="-92.88" x2="-103.41" y2="293.12" xlink:href="#Nueva_muestra_de_degradado_7"/><linearGradient id="Nueva_muestra_de_degradado_7-10" x1="435.18" y1="-47.71" x2="-68.82" y2="338.29" xlink:href="#Nueva_muestra_de_degradado_7"/><linearGradient id="Nueva_muestra_de_degradado_7-11" x1="442.86" y1="-37.69" x2="-61.14" y2="348.31" xlink:href="#Nueva_muestra_de_degradado_7"/><linearGradient id="Nueva_muestra_de_degradado_7-12" x1="383.94" y1="-114.62" x2="-120.06" y2="271.38" xlink:href="#Nueva_muestra_de_degradado_7"/></defs><title>LogoSUNSHINETV-Gold</title><path class="cls-1" d="M43.19,24a20.63,20.63,0,0,0-8,12.43q-1.5,7.16,1.44,11t10,4.86l6.4.94a4.68,4.68,0,0,1,3.32,1.47A3.87,3.87,0,0,1,56.78,58q-1.05,4.92-8.92,4.93A22.42,22.42,0,0,1,41.34,62a9.66,9.66,0,0,1-4.93-3L25.94,67.68A16.86,16.86,0,0,0,34,73.44a35.67,35.67,0,0,0,11.18,1.47,28.44,28.44,0,0,0,15.89-4.44,19.81,19.81,0,0,0,9-12.81q1.69-8.05-1.51-12-2.77-3.54-9.86-4.55l-6.44-.91a5,5,0,0,1-3.43-1.61A3.05,3.05,0,0,1,48.35,36a5.59,5.59,0,0,1,2.25-3.43,8.83,8.83,0,0,1,5.47-1.66h2.14a19,19,0,0,1,2.56.3,8.09,8.09,0,0,1,5,2.94l10.32-8.47Q70.9,19.1,58.93,19.11A25.55,25.55,0,0,0,43.19,24"/><path class="cls-2" d="M102.76,33,97.49,57.81a7.23,7.23,0,0,1-2.86,4.64,6.1,6.1,0,0,1-3.43,1,4.15,4.15,0,0,1-2.94-1c-1.08-1-1.39-2.55-.94-4.64L92.59,33H79.94L74.29,59.51a21.68,21.68,0,0,0-.56,6.25A10,10,0,0,0,76,71.37q2.79,3.54,8.55,3.54A16.09,16.09,0,0,0,95,71.07l-.72,3.39H106.6L115.41,33Z"/><path class="cls-3" d="M133.49,36.35,134.2,33H121.85L113,74.46h12.65L131,49.64A7.16,7.16,0,0,1,133.87,45a5.92,5.92,0,0,1,3.38-1.06,4.18,4.18,0,0,1,3,1.06c1.05,1,1.35,2.56.9,4.66l-5.27,24.82h12.65l5.65-26.55a21.33,21.33,0,0,0,.56-6.25,10,10,0,0,0-2.22-5.61q-2.79-3.54-8.54-3.54a16.05,16.05,0,0,0-10.47,3.84"/><path class="cls-4" d="M166.14,35.94a15.8,15.8,0,0,0-7.35,10.28Q157.56,52,160.26,55q2.42,2.67,8,3.24l6.29.6a2.86,2.86,0,0,1,2.18,1A1.91,1.91,0,0,1,177,61.5c-.2,1-1,1.67-2.49,2.15a10.24,10.24,0,0,1-3.5.57l-.9,0c-.38,0-.74,0-1.09,0a11.62,11.62,0,0,1-2.49-.38,8.79,8.79,0,0,1-4.89-3l-9.91,8.21A14.34,14.34,0,0,0,159.47,74a25.53,25.53,0,0,0,4.45.76c1.15.07,2.68.11,4.59.11a25.32,25.32,0,0,0,13.33-3.35,15.83,15.83,0,0,0,7.6-10.66q1.14-5.24-1.16-8.51-2.49-3.54-8.59-4.14l-6.29-.64a4.33,4.33,0,0,1-1.54-.41,1.85,1.85,0,0,1-.68-.68,1.41,1.41,0,0,1,0-.72l0-.49a2.58,2.58,0,0,1,1.24-1.54,6,6,0,0,1,3.39-.87,19.79,19.79,0,0,1,4.71.46,6.24,6.24,0,0,1,3.54,2l9.45-7.8a12.12,12.12,0,0,0-6.29-4.06,32.23,32.23,0,0,0-9-1,22.05,22.05,0,0,0-12.12,3.43"/><path class="cls-5" d="M202,19.56l-11.67,54.9H203l5.35-25.16a6.74,6.74,0,0,1,2.75-4.36,5.65,5.65,0,0,1,3.24-1,4.11,4.11,0,0,1,2.86,1c1,1,1.29,2.41.86,4.36l-5.34,25.16h12.65l5.72-26.92q1.4-6.63-1-10.66-2.61-4.37-9-4.37a15.38,15.38,0,0,0-9.94,3.84l3.58-16.79Z"/><path class="cls-6" d="M239.91,34.58l-8.48,39.88h12.66l8.47-39.88Zm3.27-15.47-2,9.63H253.8l2-9.63Z"/><path class="cls-7" d="M271,36.35l.72-3.39H259.34l-8.81,41.5h12.65l5.27-24.82a7.15,7.15,0,0,1,2.9-4.66,5.93,5.93,0,0,1,3.39-1.06,4.14,4.14,0,0,1,3,1.06c1.06,1,1.36,2.56.91,4.66l-5.27,24.82H286l5.64-26.55a21.74,21.74,0,0,0,.57-6.25A10.19,10.19,0,0,0,290,36.05q-2.79-3.54-8.55-3.54A16.09,16.09,0,0,0,271,36.35"/><path class="cls-8" d="M309.35,46.14a6.89,6.89,0,0,1,6.17-3.24c2.71,0,4.31,1.08,4.78,3.24a7.06,7.06,0,0,1,0,3.24H308a8.42,8.42,0,0,1,1.36-3.24M303.17,38q-6.44,5.73-8.55,15.7a28.05,28.05,0,0,0-.49,10.88A11.56,11.56,0,0,0,297.37,71a12.62,12.62,0,0,0,5.73,3.09,25.3,25.3,0,0,0,6.74.79,26,26,0,0,0,9.75-1.7,29.82,29.82,0,0,0,7.75-4.85l-5.91-7.53a17.29,17.29,0,0,1-4,2.56,14.09,14.09,0,0,1-5.3.9q-7.32,0-5.92-6.48H331l1.2-5.64q1.82-8.47-1.88-13.9-3.88-5.76-12.58-5.76A21.27,21.27,0,0,0,303.17,38"/><path class="cls-9" d="M195.68,10.35c-35.89,4.15-68.75,10.84-95.25,18.83a588.06,588.06,0,0,1,80.15-13.59c91.31-9.38,167.35,1.67,169.84,24.69.82,7.58-6.43,15.51-19.79,23.07C353.7,53.43,367,42.55,365.78,32.5c-2-16.59-43-26.36-100.39-26.36a612.85,612.85,0,0,0-69.71,4.21"/><polygon class="cls-10" points="352.19 0 350.31 7.03 357.62 7.03 352.85 24.84 361.15 24.84 365.93 7.03 373.24 7.03 375.12 0 352.19 0"/><polygon class="cls-11" points="390.61 0 382.04 13.95 380.95 0 371.65 0 375.02 25.02 382.98 25.02 399.77 0 390.61 0"/><path class="cls-12" d="M.08,80.65C2.84,103.42,79,113.33,170.18,102.8,206.07,98.65,238.93,92,265.43,84a588.06,588.06,0,0,1-80.15,13.59C94,106.94,17.93,95.88,15.44,72.87c-.82-7.58,6.43-15.51,19.79-23.07C12.16,59.72-1.14,70.6.08,80.65"/></svg>