<svg xmlns="http://www.w3.org/2000/svg" xmlns:xlink="http://www.w3.org/1999/xlink" viewBox="0 0 399.77 107.01"><defs><linearGradient id="linear-gradient" x1="339.43" y1="280.63" x2="-164.57" y2="-105.37" gradientTransform="matrix(1, 0, 0, -1, 0, 107.89)" gradientUnits="userSpaceOnUse"><stop offset="0" stop-color="#fded81"/><stop offset="0.05" stop-color="#b78b3a"/><stop offset="0.2" stop-color="#fff0a5"/><stop offset="0.3" stop-color="#be9746"/><stop offset="0.51" stop-color="#f0e79a"/><stop offset="0.56" stop-color="#e5d488"/><stop offset="0.64" stop-color="#d7bd71"/><stop offset="0.69" stop-color="#d2b469"/><stop offset="0.77" stop-color="#fff0a5"/><stop offset="0.92" stop-color="#be9746"/><stop offset="1" stop-color="#fff0a5"/></linearGradient><linearGradient id="linear-gradient-2" x1="357.74" y1="256.71" x2="-146.26" y2="-129.29" xlink:href="#linear-gradient"/><linearGradient id="linear-gradient-3" x1="373.24" y1="236.47" x2="-130.76" y2="-149.53" xlink:href="#linear-gradient"/><linearGradient id="linear-gradient-4" x1="387.59" y1="217.73" x2="-116.41" y2="-168.27" xlink:href="#linear-gradient"/><linearGradient id="linear-gradient-5" x1="399.02" y1="202.82" x2="-104.98" y2="-183.18" xlink:href="#linear-gradient"/><linearGradient id="linear-gradient-6" x1="409.98" y1="188.51" x2="-94.02" y2="-197.49" xlink:href="#linear-gradient"/><linearGradient id="linear-gradient-7" x1="424.06" y1="170.13" x2="-79.94" y2="-215.87" xlink:href="#linear-gradient"/><linearGradient id="linear-gradient-8" x1="439.53" y1="149.92" x2="-64.47" y2="-236.08" xlink:href="#linear-gradient"/><linearGradient id="linear-gradient-9" x1="400.59" y1="200.77" x2="-103.41" y2="-185.23" xlink:href="#linear-gradient"/><linearGradient id="linear-gradient-10" x1="435.18" y1="155.6" x2="-68.82" y2="-230.4" xlink:href="#linear-gradient"/><linearGradient id="linear-gradient-11" x1="442.86" y1="145.58" x2="-61.14" y2="-240.42" xlink:href="#linear-gradient"/><linearGradient id="linear-gradient-12" x1="383.95" y1="222.5" x2="-120.05" y2="-163.5" xlink:href="#linear-gradient"/></defs><title>LogoSUNSHINETV-Gold</title><g id="Layer_2" data-name="Layer 2"><g id="Layer_1-2" data-name="Layer 1"><path d="M43.19,24a20.62,20.62,0,0,0-8,12.43q-1.5,7.16,1.44,11t10,4.86l6.4.94a4.66,4.66,0,0,1,3.32,1.47,3.88,3.88,0,0,1,.43,3.3q-1.05,4.92-8.92,4.93A22.44,22.44,0,0,1,41.34,62a9.63,9.63,0,0,1-4.93-3L25.94,67.68A16.86,16.86,0,0,0,34,73.44a35.52,35.52,0,0,0,11.18,1.47,28.44,28.44,0,0,0,15.89-4.44,19.84,19.84,0,0,0,9-12.81q1.68-8.05-1.51-12-2.78-3.54-9.86-4.55l-6.44-.91a5,5,0,0,1-3.43-1.61A3,3,0,0,1,48.35,36a5.59,5.59,0,0,1,2.25-3.43,8.85,8.85,0,0,1,5.47-1.66h2.14a18.42,18.42,0,0,1,2.56.3,8.14,8.14,0,0,1,5,2.94l10.32-8.47Q70.9,19.1,58.93,19.11A25.58,25.58,0,0,0,43.19,24" fill="url(#linear-gradient)"/><path d="M102.76,33,97.49,57.81a7.22,7.22,0,0,1-2.86,4.64,6.08,6.08,0,0,1-3.43,1,4.14,4.14,0,0,1-2.94-1q-1.62-1.5-.94-4.64L92.59,33H79.94L74.29,59.51a21.56,21.56,0,0,0-.56,6.25A10,10,0,0,0,76,71.37q2.79,3.54,8.55,3.54A16.14,16.14,0,0,0,95,71.07l-.72,3.39H106.6L115.41,33Z" fill="url(#linear-gradient-2)"/><path d="M133.49,36.35,134.2,33H121.85L113,74.46h12.65L131,49.64A7.16,7.16,0,0,1,133.87,45a5.91,5.91,0,0,1,3.38-1.06,4.18,4.18,0,0,1,3,1.06c1.05,1,1.35,2.56.9,4.66l-5.27,24.82h12.65l5.65-26.55a21.53,21.53,0,0,0,.56-6.25,10.06,10.06,0,0,0-2.22-5.61q-2.79-3.54-8.54-3.54a16.06,16.06,0,0,0-10.47,3.84" fill="url(#linear-gradient-3)"/><path d="M166.14,35.94a15.78,15.78,0,0,0-7.35,10.28Q157.56,52,160.26,55q2.42,2.67,8,3.24l6.29.6a2.86,2.86,0,0,1,2.18,1A1.92,1.92,0,0,1,177,61.5c-.2,1-1,1.67-2.49,2.15a10.44,10.44,0,0,1-3.5.57h-2a11.62,11.62,0,0,1-2.49-.38,8.76,8.76,0,0,1-4.89-3l-9.91,8.21a14.33,14.33,0,0,0,7.74,5,25.71,25.71,0,0,0,4.45.76c1.15.07,2.68.11,4.59.11a25.41,25.41,0,0,0,13.33-3.35,15.86,15.86,0,0,0,7.6-10.66q1.14-5.23-1.16-8.51-2.49-3.54-8.59-4.14l-6.29-.64a4.29,4.29,0,0,1-1.54-.41,1.78,1.78,0,0,1-.68-.68,1.26,1.26,0,0,1,0-.72v-.49a2.57,2.57,0,0,1,1.24-1.54,6,6,0,0,1,3.39-.87,19.66,19.66,0,0,1,4.71.46,6.26,6.26,0,0,1,3.54,2l9.45-7.8a12.19,12.19,0,0,0-6.29-4.06,32.14,32.14,0,0,0-9-1,22,22,0,0,0-12.12,3.43" fill="url(#linear-gradient-4)"/><path d="M202,19.56l-11.67,54.9H203l5.35-25.16a6.72,6.72,0,0,1,2.75-4.36,5.59,5.59,0,0,1,3.24-1,4.11,4.11,0,0,1,2.86,1c1,1,1.29,2.41.86,4.36l-5.34,25.16h12.65l5.72-26.92q1.4-6.63-1-10.66-2.61-4.37-9-4.37a15.36,15.36,0,0,0-9.94,3.84l3.58-16.79Z" fill="url(#linear-gradient-5)"/><path d="M239.91,34.58l-8.48,39.88h12.66l8.47-39.88Zm3.27-15.47-2,9.63H253.8l2-9.63Z" fill="url(#linear-gradient-6)"/><path d="M271,36.35l.72-3.39H259.34l-8.81,41.5h12.65l5.27-24.82a7.15,7.15,0,0,1,2.9-4.66,5.94,5.94,0,0,1,3.39-1.06,4.14,4.14,0,0,1,3,1.06c1.06,1,1.36,2.56.91,4.66l-5.27,24.82H286l5.64-26.55a21.89,21.89,0,0,0,.57-6.25A10.27,10.27,0,0,0,290,36.05q-2.79-3.54-8.55-3.54A16.12,16.12,0,0,0,271,36.35" fill="url(#linear-gradient-7)"/><path d="M309.35,46.14a6.88,6.88,0,0,1,6.17-3.24c2.71,0,4.31,1.08,4.78,3.24a7.09,7.09,0,0,1,0,3.24H308a8.36,8.36,0,0,1,1.36-3.24M303.17,38q-6.45,5.73-8.55,15.7a27.89,27.89,0,0,0-.49,10.88A11.53,11.53,0,0,0,297.37,71a12.59,12.59,0,0,0,5.73,3.09,25.53,25.53,0,0,0,6.74.79,26,26,0,0,0,9.75-1.7,29.88,29.88,0,0,0,7.75-4.85l-5.91-7.53a17.68,17.68,0,0,1-4,2.56,14.11,14.11,0,0,1-5.3.9q-7.32,0-5.92-6.48H331l1.2-5.64q1.82-8.47-1.88-13.9-3.88-5.76-12.58-5.76A21.24,21.24,0,0,0,303.17,38" fill="url(#linear-gradient-8)"/><path d="M195.68,10.35c-35.89,4.15-68.75,10.84-95.25,18.83a589.18,589.18,0,0,1,80.15-13.59c91.31-9.38,167.35,1.67,169.84,24.69.82,7.58-6.43,15.51-19.79,23.07C353.7,53.43,367,42.55,365.78,32.5c-2-16.59-43-26.36-100.39-26.36a612.87,612.87,0,0,0-69.71,4.21" fill="url(#linear-gradient-9)"/><polygon points="352.19 0 350.31 7.03 357.62 7.03 352.85 24.84 361.15 24.84 365.93 7.03 373.24 7.03 375.12 0 352.19 0" fill="url(#linear-gradient-10)"/><polygon points="390.61 0 382.04 13.95 380.95 0 371.65 0 375.02 25.02 382.98 25.02 399.77 0 390.61 0" fill="url(#linear-gradient-11)"/><path d="M.08,80.65C2.84,103.42,79,113.33,170.18,102.8,206.07,98.65,238.93,92,265.43,84a589.18,589.18,0,0,1-80.15,13.59C94,106.94,17.93,95.88,15.44,72.87c-.82-7.58,6.43-15.51,19.79-23.07C12.16,59.72-1.14,70.6.08,80.65" fill="url(#linear-gradient-12)"/></g></g></svg>