<svg xmlns="http://www.w3.org/2000/svg" xmlns:xlink="http://www.w3.org/1999/xlink" viewBox="0 0 394.16 105.51"><defs><radialGradient id="radial-gradient" cx="49.07" cy="19.49" r="196.8" gradientTransform="matrix(1, 0, 0, -1, 0, 105.89)" gradientUnits="userSpaceOnUse"><stop offset="0" stop-color="#44c8f5"/><stop offset="0" stop-color="#43c7f4"/><stop offset="0.1" stop-color="#2ba9d6"/><stop offset="0.19" stop-color="#1892bf"/><stop offset="0.3" stop-color="#0a81af"/><stop offset="0.42" stop-color="#0377a5"/><stop offset="0.56" stop-color="#0074a2"/><stop offset="0.77" stop-color="#006996"/><stop offset="1" stop-color="#00628e"/></radialGradient><radialGradient id="radial-gradient-4" cx="348.41" cy="133.36" r="254.31" gradientTransform="matrix(1, 0, 0, -1, 0, 105.89)" gradientUnits="userSpaceOnUse"><stop offset="0" stop-color="#ffcb05"/><stop offset="0.12" stop-color="#fec316"/><stop offset="0.36" stop-color="#fcb534"/><stop offset="0.5" stop-color="#fbb040"/><stop offset="0.66" stop-color="#f99f41"/><stop offset="0.99" stop-color="#f37243"/><stop offset="1" stop-color="#f37043"/></radialGradient></defs><title>LogoSUNSHINETV</title><g id="Layer_2" data-name="Layer 2"><g id="Layer_1-2" data-name="Layer 1"><path d="M42.58,23.66a20.31,20.31,0,0,0-7.87,12.26q-1.5,7,1.41,10.87T46,51.58l6.31.93A4.61,4.61,0,0,1,55.58,54a3.85,3.85,0,0,1,.4,3.19Q54.95,62,47.19,62a22.16,22.16,0,0,1-6.43-.86,9.53,9.53,0,0,1-4.86-3L25.58,66.73a16.65,16.65,0,0,0,8,5.68,35.26,35.26,0,0,0,11,1.45,28,28,0,0,0,15.66-4.38,19.62,19.62,0,0,0,8.88-12.63Q70.79,48.92,67.64,45q-2.74-3.48-9.73-4.49l-6.34-.89A5,5,0,0,1,48.19,38a3,3,0,0,1-.52-2.53,5.55,5.55,0,0,1,2.22-3.38,8.65,8.65,0,0,1,5.39-1.63h2.11a18,18,0,0,1,2.53.3,8,8,0,0,1,4.9,2.89L75,25.3q-5.09-6.47-16.89-6.46a25.24,25.24,0,0,0-15.52,4.82" fill="url(#radial-gradient)"/><path d="M101.32,32.5,96.12,57a7,7,0,0,1-2.82,4.57,6.05,6.05,0,0,1-3.38,1,4,4,0,0,1-2.89-1c-1.08-1-1.39-2.52-.93-4.57l5.19-24.5H78.82L73.25,58.67a21.72,21.72,0,0,0-.56,6.17,10,10,0,0,0,2.2,5.53c1.83,2.33,4.63,3.49,8.42,3.49a15.82,15.82,0,0,0,10.32-3.79l-.7,3.34h12.18l8.68-40.91Z" fill="url(#radial-gradient)"/><path d="M131.61,35.84l.71-3.34H120.14l-8.68,40.91h12.47L129.13,49A7,7,0,0,1,132,44.34a5.9,5.9,0,0,1,3.34-1,4.13,4.13,0,0,1,2.93,1c1,1,1.33,2.52.89,4.61L134,73.41h12.48L152,47.24a21.64,21.64,0,0,0,.55-6.16,10,10,0,0,0-2.18-5.53q-2.76-3.49-8.43-3.49a15.87,15.87,0,0,0-10.33,3.78" fill="url(#radial-gradient)"/><path d="M163.81,35.43a15.56,15.56,0,0,0-7.24,10.14q-1.23,5.72,1.45,8.69c1.58,1.75,4.22,2.82,7.9,3.19l6.2.59a2.9,2.9,0,0,1,2.16,1,1.92,1.92,0,0,1,.26,1.63c-.2.94-1,1.65-2.45,2.12a10.49,10.49,0,0,1-3.46.56h-2a12,12,0,0,1-2.46-.37,8.75,8.75,0,0,1-4.82-3l-9.77,8a14.16,14.16,0,0,0,7.62,5,24.92,24.92,0,0,0,4.38.75c1.14.07,2.64.11,4.53.11a25,25,0,0,0,13.14-3.3,15.69,15.69,0,0,0,7.5-10.51c.74-3.44.35-6.24-1.15-8.39q-2.46-3.49-8.47-4.08l-6.2-.64a4.19,4.19,0,0,1-1.52-.41,1.64,1.64,0,0,1-.67-.66,1.42,1.42,0,0,1,0-.71v-.48A2.47,2.47,0,0,1,170,43.16a5.77,5.77,0,0,1,3.34-.86,20.12,20.12,0,0,1,4.64.45,6.19,6.19,0,0,1,3.49,2l9.32-7.68a11.85,11.85,0,0,0-6.2-4,31.76,31.76,0,0,0-8.84-1,21.76,21.76,0,0,0-11.95,3.37" fill="url(#radial-gradient-4)"/><path d="M199.19,19.29,187.68,73.41h12.48l5.27-24.8a6.6,6.6,0,0,1,2.71-4.3,5.58,5.58,0,0,1,3.19-1,4,4,0,0,1,2.82,1q1.47,1.41.86,4.3l-5.27,24.8h12.47l5.64-26.54q1.38-6.54-1-10.51-2.58-4.3-8.91-4.3a15.12,15.12,0,0,0-9.8,3.78l3.53-16.55Z" fill="url(#radial-gradient-4)"/><path d="M236.54,34.1l-8.35,39.31h12.47L249,34.1Zm3.23-15.26-2,9.5h12.47l2-9.5Z" fill="url(#radial-gradient-4)"/><path d="M267.17,35.84l.71-3.34H255.7L247,73.41h12.48L264.69,49a7,7,0,0,1,2.86-4.61,5.9,5.9,0,0,1,3.34-1,4.13,4.13,0,0,1,2.93,1c1,1,1.33,2.52.89,4.61l-5.2,24.46H282l5.57-26.17a21.64,21.64,0,0,0,.55-6.16,10,10,0,0,0-2.19-5.53q-2.76-3.49-8.43-3.49a15.86,15.86,0,0,0-10.32,3.78" fill="url(#radial-gradient-4)"/><path d="M305,45.49a6.78,6.78,0,0,1,6.09-3.19q4,0,4.71,3.19a6.92,6.92,0,0,1,0,3.2H303.67a8.15,8.15,0,0,1,1.34-3.2m-6.09-8q-6.36,5.64-8.43,15.48A27.28,27.28,0,0,0,290,63.69,11.26,11.26,0,0,0,293.2,70a12.45,12.45,0,0,0,5.65,3,24.78,24.78,0,0,0,6.64.78,25.94,25.94,0,0,0,9.62-1.67,29.77,29.77,0,0,0,7.64-4.79L316.93,60a17.22,17.22,0,0,1-4,2.53,14,14,0,0,1-5.23.89q-7.2,0-5.83-6.39h24.47l1.18-5.56q1.78-8.36-1.85-13.7-3.82-5.69-12.4-5.68a21,21,0,0,0-14.37,5.42" fill="url(#radial-gradient-4)"/><path d="M192.93,10.21C157.55,14.29,125.15,20.9,99,28.77a580.31,580.31,0,0,1,79-13.4C268,6.12,343,17,345.46,39.72c.8,7.47-6.35,15.28-19.51,22.74C348.74,52.68,361.85,42,360.65,32c-2-16.35-42.4-26-99-26a604.9,604.9,0,0,0-68.74,4.16" fill="url(#radial-gradient-4)"/><polygon points="347.25 0 345.39 6.93 352.61 6.93 347.9 24.5 356.09 24.5 360.8 6.93 368.01 6.93 369.87 0 347.25 0" fill="url(#radial-gradient-4)"/><polygon points="385.13 0 376.68 13.75 375.61 0 366.44 0 369.76 24.67 377.61 24.67 394.16 0 385.13 0" fill="url(#radial-gradient-4)"/><path d="M.08,79.52C2.8,102,77.89,111.74,167.8,101.36c35.38-4.09,67.78-10.7,93.91-18.57a580.57,580.57,0,0,1-79,13.4c-90,9.25-165-1.65-167.47-24.35-.81-7.47,6.35-15.28,19.51-22.74C12,58.88-1.13,69.61.08,79.52" fill="url(#radial-gradient)"/></g></g></svg>