<svg xmlns="http://www.w3.org/2000/svg" viewBox="0 0 165 70.39"><title>SunshineVenicia</title><g id="Layer_2" data-name="Layer 2"><g id="Layer_1-2" data-name="Layer 1"><path d="M42.25,42.25h0A14.09,14.09,0,0,0,28.16,28.16H42.25A14.09,14.09,0,1,0,28,42.24H14.08A14.1,14.1,0,0,0,28.16,56.32V70.39A14.08,14.08,0,0,0,42.25,56.32H28.34A14.08,14.08,0,0,0,42.25,42.25Z" fill="#0068a6"/><path d="M56.33,42.25A14.09,14.09,0,0,0,42.25,28.16V42.24h0V70.39A14.08,14.08,0,0,0,56.33,56.31H42.59A14.07,14.07,0,0,0,56.33,42.25Z" fill="#0068a6"/><path d="M42.25,14.08V28.16H56.33A14.1,14.1,0,0,0,42.25,14.08Z" fill="#0068a6"/><path d="M28.16,0A14.08,14.08,0,0,0,14.08,14.08H28.16Z" fill="#0068a6"/><path d="M0,14.08H14.08V0A14.08,14.08,0,0,0,0,14.08Z" fill="#0068a6"/><path d="M14.08,14.08a14.09,14.09,0,0,0,0,28.17h0Z" fill="#0068a6"/><path d="M14.08,56.33V42.25H0A14.08,14.08,0,0,0,14.08,56.33Z" fill="#0068a6"/><path d="M69.93,33.28a8.18,8.18,0,0,1-3.13-.56A8.81,8.81,0,0,1,64.1,31l1-1.18a8.39,8.39,0,0,0,2.26,1.52,6.41,6.41,0,0,0,2.63.5,3.63,3.63,0,0,0,2.32-.69,2.14,2.14,0,0,0,.86-1.74h0a2.26,2.26,0,0,0-.16-.89,1.9,1.9,0,0,0-.57-.72,4,4,0,0,0-1.13-.6c-.61-.2-1.22-.37-1.85-.51A13.23,13.23,0,0,1,67.33,26a5.13,5.13,0,0,1-1.5-.83A3,3,0,0,1,65,24.06a3.81,3.81,0,0,1-.28-1.53h0A3.62,3.62,0,0,1,65,20.94a4,4,0,0,1,1-1.23,4.72,4.72,0,0,1,1.49-.82,5.73,5.73,0,0,1,1.88-.29,7.67,7.67,0,0,1,2.73.4,8.77,8.77,0,0,1,2.28,1.31l-.94,1.25a7.11,7.11,0,0,0-2-1.19A6.32,6.32,0,0,0,69.33,20a3.47,3.47,0,0,0-2.23.66,2,2,0,0,0-.81,1.64h0a2.36,2.36,0,0,0,.16.91A1.86,1.86,0,0,0,67,24a4.75,4.75,0,0,0,1.18.62,16.17,16.17,0,0,0,1.93.52,8.41,8.41,0,0,1,3.52,1.46,3.2,3.2,0,0,1,1.13,2.57v0a3.74,3.74,0,0,1-1.37,2.93,4.44,4.44,0,0,1-1.53.82A6.29,6.29,0,0,1,69.93,33.28Z" fill="#09304c"/><path d="M83,33.3a7.14,7.14,0,0,1-2.42-.39,5,5,0,0,1-1.88-1.19,5.3,5.3,0,0,1-1.21-1.94,7.64,7.64,0,0,1-.43-2.68V18.8h1.61V27a5,5,0,0,0,1.15,3.57,4.76,4.76,0,0,0,6.36.06,4.85,4.85,0,0,0,1.16-3.53V18.8H89V27a8,8,0,0,1-.43,2.75,5.27,5.27,0,0,1-1.21,2A4.92,4.92,0,0,1,85.43,33,7.16,7.16,0,0,1,83,33.3Z" fill="#09304c"/><path d="M91.94,18.8h1.51l9,11.45V18.8H104V33.08h-1.29l-9.2-11.71V33.08H91.94Z" fill="#09304c"/><path d="M112.13,33.28a8.18,8.18,0,0,1-3.13-.56A9,9,0,0,1,106.3,31l1-1.18a8.63,8.63,0,0,0,2.26,1.52,6.41,6.41,0,0,0,2.63.5,3.63,3.63,0,0,0,2.32-.69,2.09,2.09,0,0,0,.87-1.74h0a2.47,2.47,0,0,0-.17-.89,1.9,1.9,0,0,0-.57-.72,4,4,0,0,0-1.13-.6,16.88,16.88,0,0,0-1.85-.51,14.37,14.37,0,0,1-2.13-.61,5.64,5.64,0,0,1-1.5-.83,3.08,3.08,0,0,1-.87-1.15,3.82,3.82,0,0,1-.29-1.53h0a3.48,3.48,0,0,1,1.35-2.78,4.72,4.72,0,0,1,1.49-.82,5.67,5.67,0,0,1,1.87-.29,7.77,7.77,0,0,1,2.75.44,8.29,8.29,0,0,1,2.27,1.31l-.94,1.25a6.76,6.76,0,0,0-2-1.19,6.32,6.32,0,0,0-2.11-.36,3.46,3.46,0,0,0-2.22.66,2,2,0,0,0-.82,1.64h0a2.37,2.37,0,0,0,.17.91,1.72,1.72,0,0,0,.58.73,4.09,4.09,0,0,0,1.19.62,16.17,16.17,0,0,0,1.93.52,8.32,8.32,0,0,1,3.51,1.46A3.21,3.21,0,0,1,117,29.2v.05a3.82,3.82,0,0,1-.36,1.66,3.86,3.86,0,0,1-1,1.27,4.49,4.49,0,0,1-1.54.82A6.56,6.56,0,0,1,112.13,33.28Z" fill="#09304c"/><path d="M119.48,18.8h1.61v6.35h8.24V18.8h1.61V33.08h-1.61V26.65h-8.24v6.43h-1.61Z" fill="#09304c"/><path d="M134.31,18.8h1.61V33.08h-1.61Z" fill="#09304c"/><path d="M139.28,18.8h1.51l9,11.45V18.8h1.57V33.08h-1.29l-9.22-11.71V33.08h-1.57Z" fill="#09304c"/><path d="M154.58,18.8H164.9v1.47h-8.71v4.88H164v1.46h-7.79v5H165v1.47H154.58Z" fill="#09304c"/><path d="M63.51,39.76H67l3.74,10.06,3.73-10.06h3.38l-5.8,14.38H69.28Z" fill="#09304c"/><path d="M79.21,39.76H90v2.8H82.31v2.89H89v2.8H82.31v3h7.75V54H79.21Z" fill="#09304c"/><path d="M92.06,39.76H95l6.69,8.79V39.76h3.1V54h-2.67l-7-9v9h-3.1Z" fill="#09304c"/><path d="M107.5,39.76h3.14V54H107.5Z" fill="#09304c"/><path d="M120.09,54.29a7.32,7.32,0,0,1-2.92-.58,7,7,0,0,1-2.32-1.56,6.7,6.7,0,0,1-1.53-2.33,7.45,7.45,0,0,1-.55-2.88h0a7.39,7.39,0,0,1,.55-2.86,7.12,7.12,0,0,1,3.87-3.94,7.71,7.71,0,0,1,3-.58,9.36,9.36,0,0,1,1.83.16,7.85,7.85,0,0,1,1.5.45,7.14,7.14,0,0,1,1.24.69,8.27,8.27,0,0,1,1.06.9l-2,2.31a7.75,7.75,0,0,0-1.7-1.19,4.45,4.45,0,0,0-2-.43,4.12,4.12,0,0,0-1.66.35,4,4,0,0,0-1.32,1,4.47,4.47,0,0,0-.85,1.42,4.6,4.6,0,0,0-.31,1.72h0a5,5,0,0,0,.31,1.74,4.45,4.45,0,0,0,.84,1.42,4,4,0,0,0,1.31,1,3.91,3.91,0,0,0,1.68.36,4.35,4.35,0,0,0,2.07-.45,7.76,7.76,0,0,0,1.68-1.22l2,2a9.54,9.54,0,0,1-1.14,1.06,6.61,6.61,0,0,1-1.29.8,6.06,6.06,0,0,1-1.54.51A9.14,9.14,0,0,1,120.09,54.29Z" fill="#09304c"/><path d="M127.78,39.76h3.14V54h-3.14Z" fill="#09304c"/><path d="M138.57,39.66h2.9L147.59,54H144.3L143,50.8h-6L135.65,54h-3.2Zm3.3,8.38L140,43.41,138.08,48Z" fill="#09304c"/></g></g></svg>