<svg xmlns="http://www.w3.org/2000/svg" viewBox="0 0 155.29 97.49"><title>SunshineHorizon</title><g id="Layer_2" data-name="Layer 2"><g id="Layer_1-2" data-name="Layer 1"><path d="M5.88,79.85H5.66a2.34,2.34,0,0,0-.73-1.07,1.74,1.74,0,0,0-1.16-.37,1.82,1.82,0,0,0-1.34.44A1.57,1.57,0,0,0,2,80c0,.58.43,1.11,1.28,1.58,1.51.83,2.31,1.28,2.39,1.35a3.14,3.14,0,0,1,1.27,2.59,3.23,3.23,0,0,1-1.2,2.58,4.64,4.64,0,0,1-3.08,1,5.14,5.14,0,0,1-1.41-.17A3.75,3.75,0,0,1,0,88.4c.1-.35.19-.71.28-1.07a9.82,9.82,0,0,0,.2-1h.3A2.27,2.27,0,0,0,3,88.14a2.05,2.05,0,0,0,1.33-.42A1.56,1.56,0,0,0,5,86.44a2,2,0,0,0-1.26-1.72c-.78-.41-1.56-.82-2.33-1.24A3.11,3.11,0,0,1,.1,80.85,3.27,3.27,0,0,1,1,78.44a3.8,3.8,0,0,1,2.8-1,4.42,4.42,0,0,1,1.53.25,2.7,2.7,0,0,1,1,.54q-.15.39-.3.87A3.22,3.22,0,0,1,5.88,79.85Z" fill="#1c2d5a"/><path d="M8.74,84.36V77.73l1.07.1,1.08-.1v6.2a7.72,7.72,0,0,0,.1,1.51,5.82,5.82,0,0,0,.24,1,2.37,2.37,0,0,0,.54.85,2.1,2.1,0,0,0,1.62.72,2.54,2.54,0,0,0,1.6-.46A3.44,3.44,0,0,0,16,86a5.13,5.13,0,0,0,.2-1.16c0-.53.06-1.26.06-2.2V77.73H17.4v5.79a13.54,13.54,0,0,1-.19,2.62,3.65,3.65,0,0,1-1.34,2.09,3.15,3.15,0,0,1-1.24.68,5,5,0,0,1-1.49.2,5.16,5.16,0,0,1-2.53-.57A3.26,3.26,0,0,1,9,86.38a6.74,6.74,0,0,1-.17-1A8.78,8.78,0,0,1,8.74,84.36Z" fill="#1c2d5a"/><path d="M19.93,88.88V77.73h1.63l7,7.61V77.73a1.93,1.93,0,0,1,.34,0h.31l.65-.06V88.92h-1.4c-.92-1-1.83-2-2.75-3.09l-2.71-3L21.23,81v7.9h-.65Z" fill="#1c2d5a"/><path d="M38,79.85h-.22A2.52,2.52,0,0,0,37,78.78a1.74,1.74,0,0,0-1.16-.37,1.82,1.82,0,0,0-1.34.44A1.57,1.57,0,0,0,34.07,80c0,.58.42,1.11,1.27,1.58,1.52.83,2.31,1.28,2.39,1.35A3.16,3.16,0,0,1,39,85.53a3.23,3.23,0,0,1-1.2,2.58,4.67,4.67,0,0,1-3.09,1,5.53,5.53,0,0,1-1.4-.17,4,4,0,0,1-1.23-.54c.09-.35.19-.71.28-1.07a9.82,9.82,0,0,0,.2-1h.29a2.38,2.38,0,0,0,.81,1.31,2.27,2.27,0,0,0,1.44.48,2.08,2.08,0,0,0,1.34-.42A1.57,1.57,0,0,0,37,86.44a2,2,0,0,0-1.25-1.72c-.78-.41-1.56-.82-2.33-1.24a3.16,3.16,0,0,1-1.27-2.63,3.26,3.26,0,0,1,1-2.41,3.77,3.77,0,0,1,2.79-1,4.48,4.48,0,0,1,1.54.25,2.7,2.7,0,0,1,1,.54c-.1.26-.19.55-.29.87A2.76,2.76,0,0,0,38,79.85Z" fill="#1c2d5a"/><path d="M41,88.92V77.73a3.21,3.21,0,0,1,.62,0h1.82v4.42h5V77.73h2.44V88.92h-1.2a3.21,3.21,0,0,0-.62,0,2.15,2.15,0,0,1-.62,0V83.45h-5v5.47h-1.2a3.21,3.21,0,0,0-.62,0A2.15,2.15,0,0,1,41,88.92Z" fill="#1c2d5a"/><path d="M53.9,88.92V77.73h2.44V88.92H55.11a3.11,3.11,0,0,0-.61,0A2,2,0,0,1,53.9,88.92Z" fill="#1c2d5a"/><path d="M59.33,88.88V77.73H61l7,7.61V77.73a1.93,1.93,0,0,1,.34,0h.31l.65-.06V88.92H67.9c-.92-1-1.84-2-2.75-3.09l-2.71-3L60.63,81v7.9H60Z" fill="#1c2d5a"/><path d="M72.07,77.73h7.48a.89.89,0,0,1-.07.42v.29a4.1,4.1,0,0,0,.1.69c-.7-.08-1.4-.12-2.11-.13s-1.62-.07-2.38-.07H74.5v3.51h3.76a9.9,9.9,0,0,0,1.22-.14l-.12.72a1.71,1.71,0,0,0,0,.32.59.59,0,0,0,.08.36l-1.17-.08H74.5v4.13c1,0,1.87,0,2.78-.06s1.66-.1,2.27-.17a5.46,5.46,0,0,1-.1.69,1.82,1.82,0,0,0,0,.33.72.72,0,0,0,.07.38H72.07Z" fill="#1c2d5a"/><path d="M84.68,88.92V77.73h2.43v4.42h5V77.73a3.21,3.21,0,0,1,.62,0h1.82V88.92h-1.2a3.21,3.21,0,0,0-.62,0,2.15,2.15,0,0,1-.62,0V83.45h-5v5.47H85.92a3.21,3.21,0,0,0-.62,0A2.15,2.15,0,0,1,84.68,88.92Z" fill="#1c2d5a"/><path d="M106.81,83.22a6.17,6.17,0,0,1-1.41,4.14,4.81,4.81,0,0,1-3.85,1.75,4.59,4.59,0,0,1-3.63-1.53,6.33,6.33,0,0,1-1.35-4.29A6.09,6.09,0,0,1,98,79.16a4.88,4.88,0,0,1,3.92-1.73,4.37,4.37,0,0,1,3.9,2A6.68,6.68,0,0,1,106.81,83.22Zm-5-4.81a2.4,2.4,0,0,0-2.18,1.33,8.35,8.35,0,0,0-.77,4,6.33,6.33,0,0,0,.63,3,2.31,2.31,0,0,0,2.13,1.38,2.54,2.54,0,0,0,2.3-1.58,8,8,0,0,0,.73-3.62,6.59,6.59,0,0,0-.65-3.06,2.38,2.38,0,0,0-2.23-1.45Z" fill="#1c2d5a"/><path d="M108.43,88.92V77.73h3.81a11.67,11.67,0,0,1,1.32.07,2.89,2.89,0,0,1,1,.25,2.73,2.73,0,0,1,1.08.94,3,3,0,0,1-.32,3.33,3.58,3.58,0,0,1-1.85,1c.3.54.64,1.11,1,1.72q.15.25,1.83,2.82l.65,1h-.54l-1-.08a4.57,4.57,0,0,0-.74,0,3,3,0,0,1-.73,0L112,85.33l-1-1.65h-.1v5.24h-1.23a3,3,0,0,0-.6,0A2.29,2.29,0,0,1,108.43,88.92Zm2.44-10.31V83h.39c1.44,0,2.15-.78,2.15-2.34v-.37a1.61,1.61,0,0,0-.06-.44,1.31,1.31,0,0,0-.76-1,3.12,3.12,0,0,0-1.25-.19Z" fill="#1c2d5a"/><path d="M118.77,88.92V77.73h2.44V88.92H120a3,3,0,0,0-.6,0A2.08,2.08,0,0,1,118.77,88.92Z" fill="#1c2d5a"/><path d="M132.37,88.82h-9.14v-.29q3-4.73,5.75-9.4V78.9c-.65,0-1.78,0-3.39.13q-1.22.06-1.68.06v-.32a2.16,2.16,0,0,0,0-.36V78a1.13,1.13,0,0,1,0-.26h8.49V78c-.59.89-1.24,1.93-2,3.11s-1.42,2.38-1.88,3.17l-1.82,3.19v.16h2.23l3.4-.15a.76.76,0,0,1-.05.33v.36a2.94,2.94,0,0,0,0,.42A.92.92,0,0,1,132.37,88.82Z" fill="#1c2d5a"/><path d="M143.61,83.22a6.17,6.17,0,0,1-1.41,4.14,4.83,4.83,0,0,1-3.86,1.75,4.56,4.56,0,0,1-3.62-1.53,6.33,6.33,0,0,1-1.35-4.29,6.13,6.13,0,0,1,1.38-4.13,4.88,4.88,0,0,1,3.92-1.73,4.42,4.42,0,0,1,3.9,2A6.68,6.68,0,0,1,143.61,83.22Zm-5-4.81a2.42,2.42,0,0,0-2.19,1.33,8.35,8.35,0,0,0-.77,4,6.33,6.33,0,0,0,.63,3,2.3,2.3,0,0,0,2.14,1.38,2.52,2.52,0,0,0,2.29-1.58,7.79,7.79,0,0,0,.73-3.62,6.59,6.59,0,0,0-.65-3.06,2.38,2.38,0,0,0-2.22-1.45Z" fill="#1c2d5a"/><path d="M145.36,88.88V77.73H147l7,7.61V77.73h.64l.65-.06V88.92h-1.4c-.92-1-1.83-2-2.74-3.09l-2.72-3L146.67,81v7.9H146Z" fill="#1c2d5a"/><path d="M104.34,40.36,99,45.68V40.5h0V31l-4.9-5.53V22.69l-4.92-5.55V13.85L84.26,8.3V6.46l-5-5.6L78.53,0l-.76.86-5,5.6V8.3l-4.92,5.55v3.29L63,22.69v2.78L58,31v9.48h0v5.18l-5.3-5.32V47.6l25,25.05.76.77.77-.77,25-25.05ZM92.52,52.22,79.33,65.42V62.67l7.41-7.5,5.8-5.83h0L93.87,48l.23-.24h0l3.37-3.45v2.94Zm-23.06-8,4.92,5h0l3.36,3.44v2.73L69.46,47Zm18.15,0v2.83l-8.28,8.38V52.7l3.36-3.44h0ZM79.33,60.4V57.66L92.54,44.3v2.78l-7,7ZM64.53,47.08V44.3L77.74,57.66V60.4l-6.25-6.28ZM94.1,27.84l3.36,3.79V42.08l-1,1.05L94.1,45.49Zm-1.57-4.56v18.8l-3.35,3.39V42.62h0V19.5Zm-4.91-8.83v.92h0V42l-.22.23-3.13,3.2V10.66ZM79.34,3.26l3.35,3.79V47l-.2.22-3.15,3.22ZM77.73,50.45l-3.15-3.22-.2-.22V7l3.35-3.79Zm-8.28-36,3.36-3.79V45.41l-3.13-3.2L69.46,42V15.37h0Zm-4.92,8.83,3.36-3.78V42.61h0v2.85l-3.36-3.39Zm-4.92,18.8V31.63L63,27.84V45.49l-2.34-2.36Zm0,2.23L63,47.76h0l.23.24,1.33,1.36h0l5.83,5.87,7.38,7.46v2.75L64.55,52.22l-4.95-5ZM77.74,70.42,54.3,47V44.14L58,47.89h0l5.43,5.43L77.74,67.68Zm1.59,0V67.68L93.61,53.34,99,47.91h0l3.73-3.75V47Z" fill="#c6aa55"/><polygon points="64.53 42.07 67.89 45.46 67.89 42.61 67.89 19.5 64.53 23.28 64.53 42.07" fill="none"/><polygon points="87.61 44.22 82.69 49.26 79.33 52.7 79.33 55.43 87.61 47.05 87.61 44.22" fill="none"/><polygon points="69.46 47 77.74 55.39 77.74 52.66 74.38 49.22 69.46 44.22 69.46 47" fill="none"/><polygon points="71.49 54.12 77.74 60.4 77.74 57.66 64.53 44.3 64.53 45.47 64.53 47.08 71.49 54.12" fill="none"/><polygon points="69.46 42 69.68 42.21 72.81 45.41 72.81 10.66 69.45 14.45 69.46 15.37 69.46 42" fill="none"/><polygon points="94.1 27.84 94.1 45.49 96.46 43.13 97.46 42.08 97.46 31.63 94.1 27.84" fill="none"/><polygon points="97.47 44.31 94.1 47.76 93.87 48 92.54 49.34 86.74 55.17 79.33 62.67 79.33 65.42 92.52 52.22 97.47 47.25 97.47 44.31" fill="none"/><polygon points="87.62 14.45 84.27 10.66 84.27 45.43 87.4 42.23 87.62 42 87.62 15.37 87.62 14.45" fill="none"/><polygon points="77.74 67.68 63.43 53.32 58 47.89 54.3 44.14 54.3 47 77.74 70.42 77.74 67.68" fill="none"/><polygon points="102.73 47 102.73 44.16 99 47.91 93.61 53.34 79.33 67.68 79.33 70.42 102.73 47" fill="none"/><polygon points="79.34 50.44 82.49 47.22 82.69 47 82.69 7.05 79.34 3.26 79.34 50.44" fill="none"/><polygon points="89.18 42.62 89.18 45.47 92.53 42.08 92.53 26 92.53 23.28 89.18 19.5 89.18 42.62" fill="none"/><polygon points="59.61 31.63 59.61 42.08 60.66 43.13 63 45.49 63 42.46 63 42.45 63 42.29 63 36.72 63 27.84 59.61 31.63" fill="none"/><polygon points="74.38 47.01 74.58 47.23 77.73 50.45 77.73 44.3 77.73 3.21 74.38 7 74.38 47.01" fill="none"/><polygon points="77.77 65.44 77.77 62.69 70.39 55.23 64.56 49.36 63.23 48 63 47.76 59.61 44.31 59.6 47.22 64.55 52.22 77.77 65.44" fill="none"/><polygon points="92.54 45.47 92.54 44.3 79.33 57.66 79.33 60.4 85.54 54.08 92.54 47.08 92.54 45.47" fill="none"/><path d="M72.77,6.46V8.3l-4.92,5.55v3.29L63,22.69v2.78L58,31V45.66l-5.3-5.32V47.6l25,25.05.76.77.77-.77,25-25.05.11-7.24L99,45.68V31l-4.9-5.53V22.69l-4.92-5.55V13.85L84.26,8.3V6.46l-5-5.6L78.53,0l-.76.86Zm16.41,13,3.35,3.78v18.8l-3.35,3.39v-26Zm8.28,12.13V42.08l-1,1.05L94.1,45.49V27.84Zm0,15.62-5,5L79.33,65.42V62.67l7.41-7.5,5.8-5.83L93.87,48l.23-.24,3.37-3.45Zm-28-31.88v-.92l3.36-3.79V45.41l-3.13-3.2L69.46,42Zm-4.93,30.1V44.3L77.74,57.66V60.4l-6.25-6.28-7-7Zm0-22.19,3.36-3.78v26l-3.36-3.39Zm4.93,20.94,4.92,5,3.36,3.44v2.73L69.46,47Zm18.15,2.83-8.28,8.38V52.7l3.36-3.44,4.92-5Zm-2.07,7L79.33,60.4V57.66L92.54,44.3v2.78ZM63,27.84V42.45h0v3l-2.34-2.36-1-1.05V31.63Zm1.55,24.38-4.95-5V44.31L63,47.76l.23.24,1.33,1.36,5.83,5.87,7.38,7.46v2.75ZM74.38,7l3.35-3.79V50.45l-3.15-3.22-.2-.22ZM54.3,47V44.14L58,47.89l5.43,5.43L77.74,67.68v2.74Zm25,23.42V67.68L93.61,53.34,99,47.91l3.73-3.75V47Zm8.29-55V42l-.22.23-3.13,3.2V10.66l3.35,3.79ZM82.69,7.05V47l-.2.22-3.15,3.22V3.26Z" fill="#c6aa55"/><rect x="2.11" y="71.06" width="67.94" height="1.3" fill="#c6aa55"/><rect x="86.85" y="71.06" width="66.19" height="1.3" fill="#c6aa55"/><rect x="37.3" y="67.66" width="32.74" height="1.3" fill="#c6aa55"/><rect x="86.85" y="67.66" width="30.31" height="1.3" fill="#c6aa55"/><rect x="2.11" y="92.71" width="151.47" height="1.3" fill="#c6aa55"/><rect x="37.15" y="96.2" width="81.4" height="1.29" fill="#c6aa55"/></g></g></svg>