<svg xmlns="http://www.w3.org/2000/svg" viewBox="0 0 123.39 137.52"><title>SunshineCitySaigon</title><g id="Layer_2" data-name="Layer 2"><g id="Layer_1-2" data-name="Layer 1"><path d="M75.89,80.5l-.36-.16h0c.1-.17.18-.35.27-.53l.23-.43c.31-.61.61-1.24.89-1.87l.1-.24c.25-.57.49-1.15.72-1.73a1.21,1.21,0,0,1,.17-.43l.12-.32.37.18.37.18.8.34.27.11c.36.14.73.27,1.1.38l.25.07.87.23.39.08c.26.06.51.1.77.14l.41.07.81.09H86a1.47,1.47,0,0,0,1.59-1.34,1.48,1.48,0,0,0-1.35-1.59,1,1,0,0,0-.24,0H84.66L84,73.65l-.37-.06-.6-.11-.39-.09L82,73.22l-.38-.11L81,72.87l-.35-.13L80,72.47l-.28-.12c-.29-.14-.58-.29-.87-.46l.06-.23c.08-.26.15-.53.22-.8l.21-.78c.06-.27.12-.55.19-.83s.11-.51.17-.76.11-.57.16-.85.1-.51.14-.77.09-.57.13-.85.07-.41.1-.61a.23.23,0,0,1,.07.07l.3.25a3.11,3.11,0,0,0,.28.23l.32.23.29.19.35.21.31.17.37.17.32.14.4.14.32.11.44.1.31.08.51.07h1a1.47,1.47,0,0,0,1.59-1.34,1.48,1.48,0,0,0-1.35-1.59,1,1,0,0,0-.24,0H84.7l-.27-.06-.22-.08L84,64.4l-.23-.1-.21-.09-.22-.12L83.15,64,83,63.87l-.18-.12-.2-.16-.17-.14c-.06,0-.12-.12-.18-.18s-.11-.09-.15-.14l-.17-.2-.14-.16-.15-.21-.13-.18-.13-.22L81.29,62c0-.07-.07-.15-.11-.23l-.09-.2L81,61.27a.26.26,0,0,0-.08-.22l-.06-.25-.06-.22a1.13,1.13,0,0,1,0-.26V23.08a1.47,1.47,0,0,0-.94-1.36l-.22-.13h0l-4-2.26-3.93-2.27V6.54a1.46,1.46,0,0,0-1-1.36l-8.61-5L62,.14,61.91.07,61.79,0h-.91a1.55,1.55,0,0,0-.48.07l-9,5.17h-.06a1.47,1.47,0,0,0-.73,1.27,1.32,1.32,0,0,0,.06.39v24l-8.25,4.87h-.06A1.49,1.49,0,0,0,41.63,37a1.34,1.34,0,0,0,.06.4V58.71h0v1.4a5.29,5.29,0,0,1-5.25,4.65,1.47,1.47,0,1,0-.24,2.93,1,1,0,0,0,.24,0A8.21,8.21,0,0,0,42,65.45a4.58,4.58,0,0,0,.1.63c0,.21.08.55.13.83s.09.52.14.78.1.56.16.83.11.52.17.78.13.55.19.82l.21.78c.07.27.14.54.22.8l.06.23c-.29.17-.58.32-.87.46l-.28.12-.63.27-.35.13-.58.2-.38.11-.58.15-.39.09-.6.11a.84.84,0,0,0-.38.06l-.66.08H36.36a1.47,1.47,0,1,0-.24,2.93,1,1,0,0,0,.24,0H37.9l.8-.09.42-.07a3.28,3.28,0,0,0,.76-.14l.4-.08.87-.23L41.4,76c.37-.11.74-.24,1.1-.38l.27-.11.8-.34.37-.18.37-.18.12.32c.06.14.12.28.17.43.23.58.47,1.16.72,1.73l.1.24c.28.63.58,1.26.89,1.87l.22.43c.1.18.18.36.28.53h-.05l-.36.16c-.33.16-.66.31-1,.44l-.51.21c-.28.11-.56.22-.84.31l-.57.19-.82.25-.58.16-.84.2-.59.12-.87.14-.56.08-1,.1H36.29a1.47,1.47,0,1,0-.24,2.93,1,1,0,0,0,.24,0q.83,0,1.65-.06h.54l1.09-.11.64-.1,1-.16.66-.14.94-.22.67-.18.92-.28.65-.22.92-.35.61-.25,1-.43.53-.26.15-.06.35.55.26.4c.38.58.77,1.15,1.18,1.71.06.08.12.15.17.23.37.5.74,1,1.12,1.46l.3.37.21.26-.13.07c-.51.28-1,.54-1.57.79-.08,0-.17.08-.25.12-.55.26-1.1.49-1.65.71l-.18.07c-.57.22-1.15.43-1.73.62h-.06c-.58.19-1.18.36-1.77.51l-.23.07c-.58.14-1.15.27-1.73.38l-.3.06c-.57.11-1.15.2-1.73.27h-.29c-.6.07-1.19.13-1.78.17h-.22c-.63,0-1.26.06-1.89.06a1.46,1.46,0,1,0,0,2.92h2.85a2.8,2.8,0,0,0,.71-.06l.51-.06.67-.08.52-.07.65-.11.53-.09.64-.12.58-.13.63-.14.52-.13.62-.17.53-.14.61-.19.52-.16.61-.21.5-.18.61-.24.49-.19.62-.26.47-.2.63-.29.45-.21.67-.34.38-.2c.28-.14.56-.3.84-.46l.2-.11h0c.21.22.43.43.64.64s.2.21.31.31c.5.49,1,1,1.54,1.44l.33.29c.47.41,1,.82,1.44,1.21l.29.24.18.14a41.16,41.16,0,0,1-22.23,6.55,1.47,1.47,0,1,0-.24,2.93,1,1,0,0,0,.24,0,44,44,0,0,0,24.76-7.59,44,44,0,0,0,24.77,7.59,1.47,1.47,0,0,0,1.59-1.34,1.48,1.48,0,0,0-1.35-1.59,1,1,0,0,0-.24,0,41.16,41.16,0,0,1-22.24-6.49l.17-.14.31-.25c.48-.39,1-.78,1.42-1.19l.34-.3c.53-.47,1-1,1.54-1.44l.31-.31.64-.64h0l.2.11c.28.16.55.32.84.46l.38.2.67.34.45.21.63.29.47.2.62.26.49.19.61.24.5.18.61.21.52.16.61.19.52.14.62.17.53.13.63.14.52.12.64.12.53.09.65.11.52.07.67.08.51.06a2.88,2.88,0,0,1,.71.06h2.85a1.46,1.46,0,0,0,0-2.92h0c-.63,0-1.26,0-1.89-.06h-.22A15.52,15.52,0,0,1,82,91.49h-.29c-.58-.07-1.16-.16-1.73-.27l-.3-.06c-.58-.11-1.16-.24-1.73-.38l-.23-.07c-.59-.15-1.19-.32-1.77-.51h-.06c-.58-.19-1.16-.4-1.73-.62l-.19,0c-.55-.22-1.1-.45-1.65-.71a.58.58,0,0,1-.25-.12c-.53-.25-1.06-.51-1.58-.79l-.1,0,.21-.26.3-.37c.38-.48.75-1,1.12-1.46,0-.08.11-.15.17-.23q.61-.84,1.17-1.71l.27-.4.34-.57.15.06.53.26,1,.43.61.25.92.35.65.22.92.28.67.18.94.22.66.14,1,.16.64.1,1.09.11h.54q.83.06,1.65.06a1.47,1.47,0,0,0,1.59-1.34,1.48,1.48,0,0,0-1.35-1.59,1,1,0,0,0-.24,0H84l-1-.1-.56-.08-.88-.14-.6-.18-.84-.2-.57-.19-.82-.25-.57-.19c-.28-.09-.56-.2-.84-.31l-.51-.21A10.25,10.25,0,0,1,75.89,80.5Zm-5,1.76-1,1.49-.09.12c-.39.52-.78,1-1.19,1.53-.1.14-.21.27-.32.4l-.4.47-.52-.34-.43-.31c-.52-.38-1-.76-1.53-1.17a.3.3,0,0,0-.08-.08c-.47-.39-.93-.79-1.37-1.2l-.39-.38c-.14-.12-.26-.26-.4-.39l.18-.21.66-.81.3-.39c.2-.25.39-.51.58-.77l.28-.38c.24-.33.47-.68.7-1L66,78.7c.25-.39.5-.79.74-1.19l.06-.1.09.08c.33.35.66.69,1,1h0c.33.31.67.61,1,.9l.34.28c.25.21.51.42.78.62l.38.29.84.59.23.16c-.09.15-.17.3-.27.44s-.15.34-.24.49Zm-5.62,6.8c-.39.38-.79.76-1.19,1.12l-.33.3c-.5.44-1,.86-1.53,1.28l-.35.27-.73.55L60.42,92l-.35-.27q-.78-.63-1.53-1.29l-.31-.28c-.42-.37-.82-.75-1.22-1.13l-.35-.35c-.08-.07-.15-.16-.23-.24l.18-.13c.28-.19.55-.39.82-.59l.32-.23,1.07-.86.23-.19.83-.72.34-.31c.24-.22.49-.45.73-.69l.19-.19.2.19c.24.24.49.47.74.7l.32.29.88.76.18.16c.36.29.72.58,1.1.87l.27.2.86.62.17.12-.23.24ZM52.53,83.87l-.09-.13c-.35-.49-.69-1-1-1.49l-.3-.45c-.09-.14-.17-.29-.26-.44l.23-.16.84-.59.38-.29c.27-.2.53-.41.78-.62l.34-.28c.34-.29.68-.59,1-.9h0c.34-.32.67-.66,1-1l.1-.09.06.1c.24.4.49.8.74,1.19l.08.12a9.87,9.87,0,0,0,.72,1l.26.36c.19.27.39.53.59.79l.29.37q.35.44.69.84c0,.06.1.13.16.19-.14.13-.26.27-.4.4l-.39.36c-.45.42-.9.83-1.37,1.22a.27.27,0,0,0-.08.07q-.75.6-1.53,1.17l-.43.31-.52.34-.4-.47c-.11-.13-.22-.26-.32-.4C53.31,84.87,52.92,84.4,52.53,83.87ZM71.84,78l-.24-.16c-.36-.28-.72-.58-1.06-.88l-.25-.23c-.28-.25-.56-.51-.82-.78l-.25-.25c-.32-.33-.64-.67-.94-1v-.06c.08-.16.14-.32.21-.48s.26-.55.38-.83.26-.63.38-1,.23-.56.33-.85.23-.64.33-1,.19-.57.28-.86.19-.65.28-1,.16-.58.23-.87a.43.43,0,0,1,.08-.3l.12.22.21.37c.09.16.18.31.28.46l.23.36.3.45c.09.11.17.23.25.34s.22.29.34.43l.25.32.39.45.25.27c.15.17.32.33.48.49l.2.2c.23.22.46.44.71.65l.2.16.5.41-.27.75-.18.47c-.23.6-.47,1.2-.74,1.79,0,.11-.1.22-.15.34-.22.49-.46,1-.7,1.47-.08.16-.16.32-.25.48L73,78.8l-.17-.12a6.37,6.37,0,0,1-1-.64ZM64,76.27l-.18.29c-.2.33-.41.64-.62,1l-.2.3c-.27.39-.55.77-.83,1.14l-.13.17c-.25.33-.51.65-.77,1l-.13.15L61,80.09a10.07,10.07,0,0,1-.76-1l-.14-.18c-.29-.37-.56-.75-.83-1.14l-.2-.3c-.21-.32-.42-.64-.62-1l-.18-.28c-.24-.4-.48-.81-.71-1.22V74.9h0l.2-.28.39-.56.21-.32.34-.53.21-.35.3-.51.21-.38.27-.51.2-.39.25-.51.18-.4.23-.51c.05-.14.11-.27.16-.41s.14-.35.21-.53l.15-.4.06-.17s0,.1.07.16l.15.42c.07.17.13.35.2.52l.18.41c.07.17.14.34.22.51l.18.4c.08.18.17.35.25.52s.13.25.2.38l.27.51.21.38c.09.17.2.34.3.51l.21.36.34.51.21.34.39.54c.06.1.13.19.2.29h0V75A8.3,8.3,0,0,1,64,76.27ZM54,74.7c-.31.35-.62.69-.94,1-.08.09-.17.17-.25.25-.27.27-.54.53-.82.78l-.25.23c-.34.3-.7.6-1.07.89l-.21.15a10.46,10.46,0,0,1-1,.7l-.15.11-.21-.38c-.08-.17-.17-.33-.25-.49-.24-.49-.48-1-.7-1.47L48,76.13c-.26-.59-.5-1.19-.74-1.79-.06-.15-.11-.31-.17-.47l-.27-.75.54-.44.16-.13.72-.65.15-.16c.18-.17.35-.35.52-.53l.23-.25c.14-.16.28-.31.41-.47l.24-.3c.12-.15.24-.3.35-.46l.24-.32.31-.47a4,4,0,0,0,.22-.34c.1-.16.2-.31.29-.47l.21-.36.12-.23a1.67,1.67,0,0,0,.08.3c.07.29.15.57.23.86s.18.67.28,1l.27.85c.11.33.22.66.34,1s.21.56.32.83l.4,1c.14.35.24.54.36.81s.14.33.22.49ZM68.58,62.46a9.44,9.44,0,0,1-.12,1.18l-.09.6q-.08.54-.18,1.08a3.16,3.16,0,0,1-.11.6c-.08.38-.16.75-.25,1.12l-.12.51c-.14.54-.29,1.07-.45,1.6h0c-.16.51-.34,1-.53,1.53l-.19.49c-.1.24-.19.48-.29.71h-.08c-.24-.38-.47-.77-.68-1.16l-.11-.21c-.21-.39-.41-.78-.6-1.18v-.07c-.2-.42-.37-.84-.54-1.26l-.09-.25c-.16-.41-.31-.83-.44-1.26a.31.31,0,0,0-.07-.23c-.13-.42-.24-.84-.35-1.27V64.9c-.1-.44-.19-.89-.27-1.34v-.27c-.08-.44-.14-.88-.18-1.33v-.24c0-.45-.07-.9-.09-1.36V23.87L65,22.55l3.8-2.19V58.58h0v1.68a15.48,15.48,0,0,1-.09,1.68A1,1,0,0,0,68.58,62.46Zm-9-.76v.24a7.46,7.46,0,0,1-.18,1.33v.26q-.12.69-.27,1.35V65c-.11.43-.23.85-.35,1.28a1.87,1.87,0,0,0-.07.22c-.13.43-.28.85-.44,1.26l-.09.25c-.17.42-.34.84-.54,1.26v.07c-.19.4-.39.79-.6,1.18,0,.07-.07.14-.11.22-.22.38-.44.77-.68,1.15l-.06.08c-.09-.23-.19-.46-.28-.7s-.14-.34-.2-.51c-.19-.5-.37-1-.53-1.51v-.06c-.16-.53-.31-1.06-.45-1.6l-.12-.5c-.09-.38-.18-.75-.25-1.13a4.21,4.21,0,0,0-.11-.6A2.5,2.5,0,0,1,54,64.24l-.09-.6c0-.39-.09-.79-.12-1.19V62q-.06-.83-.09-1.68V34.47L59.79,38V60.34a10.84,10.84,0,0,0-.19,1.36ZM77.75,24V59.47c0,.26,0,.51,0,.77V62c0,.33,0,.66-.08,1v.51c0,.17-.07.61-.1.92a1.46,1.46,0,0,1-.07.51,7.47,7.47,0,0,0-.14,1l-.06.42c-.08.46-.16.92-.25,1.37v.17c-.08.4-.17.8-.26,1.19l-.12.46a2.87,2.87,0,0,1-.14.56L76.32,70l-.21-.2-.38-.39-.16-.17-.51-.58L75,68.54,74.59,68l-.15-.22L74,67.34c-.06-.08-.11-.16-.16-.24s-.17-.28-.25-.43l-.15-.24L73.2,66l-.12-.23c-.1-.2-.19-.41-.28-.61V65c-.1-.23-.19-.47-.28-.72a1.72,1.72,0,0,1-.07-.21c-.06-.17-.12-.35-.17-.52a2.76,2.76,0,0,1-.08-.27,2.14,2.14,0,0,0-.13-.48c0-.16,0-.19-.07-.29l-.09-.49-.06-.28a1.57,1.57,0,0,0-.07-.56V61a3.29,3.29,0,0,0-.06-.76V20.47l.83.48Zm-9-7.89V17l-6.09,3.52V3.87l6.09,3.51Zm-9-12.19v19a1.41,1.41,0,0,0,0,.29V34.61L53.63,31.1V7.36Zm-9,54v2.36a3.21,3.21,0,0,1-.06.76v.21a5,5,0,0,1-.08.56,1.31,1.31,0,0,1,0,.28,2.13,2.13,0,0,1-.1.49l-.18.34a1.72,1.72,0,0,1-.13.48,2.76,2.76,0,0,1-.08.27c-.05.17-.11.35-.17.52a1.72,1.72,0,0,1-.07.21c-.09.25-.18.49-.28.72v.09c-.09.2-.18.41-.28.61l-.12.23-.24.46-.15.24c-.08.15-.16.29-.25.43l-.16.24-.29.42-.15.22-.41.52-.06.08-.51.58-.16.17-.38.39-.22.2-.2.18c-.05-.19-.1-.37-.14-.56l-.12-.46c-.09-.39-.18-.79-.26-1.18v-.18c-.09-.46-.17-.91-.25-1.37L45.16,66,45,65,45,64.45c0-.31-.07-.61-.1-.92A2.51,2.51,0,0,0,44.8,63a4.86,4.86,0,0,0-.07-1V61.6a12.64,12.64,0,0,0,0-1.37V37.87l6.09-3.52Z" fill="#c6aa55"/><path d="M.31,119.63H.48a4.57,4.57,0,0,0,1.14,1.3,2.74,2.74,0,0,0,1.64.48A2.21,2.21,0,0,0,5,120.68a2.48,2.48,0,0,0,.67-1.81,2.18,2.18,0,0,0-1.39-2l-2.59-1.15a2.78,2.78,0,0,1-1.41-2.5,3,3,0,0,1,1.13-2.49,4.22,4.22,0,0,1,2.68-.8,4.73,4.73,0,0,1,1.34.2,2.92,2.92,0,0,1,1.13.62c-.07.16-.15.38-.25.66s-.17.53-.23.75H5.92a2.38,2.38,0,0,0-.82-1.11,2.23,2.23,0,0,0-1.32-.4,2.26,2.26,0,0,0-1.53.56,1.92,1.92,0,0,0-.63,1.46,2.23,2.23,0,0,0,1.4,2c.87.39,1.75.78,2.62,1.15a2.6,2.6,0,0,1,1.41,2.36,3.66,3.66,0,0,1-1.26,2.9,4.36,4.36,0,0,1-3,1,5,5,0,0,1-1.54-.21A2.84,2.84,0,0,1,0,121.14a4.91,4.91,0,0,0,.17-.66C.22,120.23.27,120,.31,119.63Z" fill="#c6aa55"/><path d="M9.93,110.17v6.6a5.77,5.77,0,0,0,.78,3.42,3.6,3.6,0,0,0,3,1.15A3.26,3.26,0,0,0,16.58,120a5.87,5.87,0,0,0,.84-3.42v-6.43a2,2,0,0,0,.49.07l.48-.07V117a5.17,5.17,0,0,1-1.32,3.86,5,5,0,0,1-3.67,1.33,6.66,6.66,0,0,1-2.17-.3,4.32,4.32,0,0,1-1.6-1,3.52,3.52,0,0,1-1-1.78,8.24,8.24,0,0,1-.22-2.1v-6.85h.75a1.85,1.85,0,0,0,.47,0Z" fill="#c6aa55"/><path d="M31.06,110.17V122h-.52a6.57,6.57,0,0,0-.89-1.07l-7.42-8.21h-.17V122h-1V110.17h.69L29.93,119h.17v-8.87h.47a1.22,1.22,0,0,0,.27,0Z" fill="#c6aa55"/><path d="M34.05,119.63h.17a4.57,4.57,0,0,0,1.14,1.3,2.74,2.74,0,0,0,1.64.48,2.22,2.22,0,0,0,1.73-.73,2.52,2.52,0,0,0,.68-1.77,2.22,2.22,0,0,0-1.41-2l-2.6-1.15a2.78,2.78,0,0,1-1.41-2.5,3,3,0,0,1,1.14-2.49,4.17,4.17,0,0,1,2.67-.8,4.74,4.74,0,0,1,1.35.2,2.92,2.92,0,0,1,1.13.62c-.07.16-.15.38-.25.66s-.17.53-.23.75h-.17a2.27,2.27,0,0,0-.82-1.11,2.18,2.18,0,0,0-1.31-.4,2.26,2.26,0,0,0-1.53.56,1.92,1.92,0,0,0-.63,1.46,2.23,2.23,0,0,0,1.4,2c.87.39,1.74.78,2.62,1.15a2.6,2.6,0,0,1,1.4,2.36,3.68,3.68,0,0,1-1.25,2.9,4.36,4.36,0,0,1-3,1,4.84,4.84,0,0,1-1.51-.21,2.68,2.68,0,0,1-1.25-.75,7.87,7.87,0,0,0,.3-1.49Z" fill="#c6aa55"/><path d="M51.88,115.12v-5h.76a1.85,1.85,0,0,0,.47,0h.29v11.79l-.4,0h-.37a2.94,2.94,0,0,0-.42,0h-.34v-5.94H44.62v5.94H43.56l-.45.06V110.17h.75a1.93,1.93,0,0,0,.48,0h.28v5h5.64Z" fill="#c6aa55"/><path d="M56.78,122V110.17h.76a1.85,1.85,0,0,0,.47,0h.29V122H56.78Z" fill="#c6aa55"/><path d="M71.76,110.17V122h-.52a6.57,6.57,0,0,0-.89-1.07l-7.42-8.21h-.17V122h-1V110.17h.69L70.63,119h.17v-8.87h.47a1.22,1.22,0,0,0,.27,0Z" fill="#c6aa55"/><path d="M75.19,110.17h7.63v1c-.22,0-.47-.08-.76-.11a5.08,5.08,0,0,0-.78,0H76.7v4.3h5.74a2.44,2.44,0,0,0-.07.46l.07.47c-.26,0-.51,0-.77,0h-5v5h2.59l2-.08a6.76,6.76,0,0,0,.9,0l.69-.09v1H75.19Z" fill="#c6aa55"/><path d="M97.11,120.07l-.06,1.1a6,6,0,0,1-1.77.76,8.42,8.42,0,0,1-2,.24,5.88,5.88,0,0,1-4.43-1.67A6.23,6.23,0,0,1,87.23,116a5.66,5.66,0,0,1,1.87-4.47,6.76,6.76,0,0,1,4.62-1.57,8.64,8.64,0,0,1,3.68.79,4.62,4.62,0,0,0-.19.6,4.15,4.15,0,0,0-.15.7h-.14A3.72,3.72,0,0,0,95.41,111a4.24,4.24,0,0,0-1.75-.41,4.28,4.28,0,0,0-3.56,1.64A6,6,0,0,0,88.92,116,5.83,5.83,0,0,0,90.19,120a4.18,4.18,0,0,0,3.33,1.48A5.74,5.74,0,0,0,97.16,120Z" fill="#c6aa55"/><path d="M99.72,122V110.17h.76a1.85,1.85,0,0,0,.47,0h.28V122H99.72Z" fill="#c6aa55"/><path d="M108.65,111v11l-.38,0h-.37a3.09,3.09,0,0,0-.43,0h-.33V111h-1.9c-.37,0-1,.07-1.88.16v-.24a1.22,1.22,0,0,0,0-.27,1.22,1.22,0,0,0,0-.27v-.25h8.87v1c-.44,0-1-.1-1.6-.14S109.34,111,108.65,111Z" fill="#c6aa55"/><path d="M119.34,116.67V122h-1.51v-5l-4.23-6.81h1.92c.33.66.88,1.67,1.66,3s1.31,2.29,1.61,2.74a20,20,0,0,0,1.67-2.77c.56-1,1.1-2,1.6-3h1.33c-.44.59-.84,1.16-1.2,1.72l-1.88,3.06a6.91,6.91,0,0,0-.54.86A6.29,6.29,0,0,0,119.34,116.67Z" fill="#c6aa55"/><path d="M25.38,127.71h-.23a2.63,2.63,0,0,0-.77-1.12,1.94,1.94,0,0,0-1.23-.39,2,2,0,0,0-1.42.46,1.65,1.65,0,0,0-.47,1.22c0,.62.45,1.18,1.34,1.67,1.6.88,2.45,1.36,2.53,1.43a3.32,3.32,0,0,1,1.35,2.74,3.4,3.4,0,0,1-1.27,2.72A4.87,4.87,0,0,1,22,137.51a6.26,6.26,0,0,1-1.49-.18,4.46,4.46,0,0,1-1.3-.58c.11-.37.2-.74.3-1.13s.17-.73.22-1H20a2.36,2.36,0,0,0,2.37,1.88,2.16,2.16,0,0,0,1.41-.44,1.62,1.62,0,0,0,.62-1.34,2.1,2.1,0,0,0-1.33-1.85l-2.46-1.31a3.31,3.31,0,0,1-1.34-2.79,3.44,3.44,0,0,1,1-2.54,4,4,0,0,1,3-1.07,5.23,5.23,0,0,1,1.62.26A3.49,3.49,0,0,1,26,126c-.11.28-.21.58-.31.92S25.44,127.52,25.38,127.71Z" fill="#c6aa55"/><path d="M38,133.69H34c-.23.65-.39,1.12-.48,1.39-.34.95-.58,1.68-.72,2.18H31.18l4.91-11.92H37.4l4.78,12h-.54l-.94-.08h-.54l-.94.09A38,38,0,0,0,38,133.69Zm-3.54-1.07h3.13l-1.52-4Z" fill="#c6aa55"/><path d="M48.51,137.3V125.47c.21,0,.43,0,.64.06h1.29c.22,0,.43,0,.65-.06V137.3a3.53,3.53,0,0,1-.65-.05H49.15C48.87,137.28,48.65,137.3,48.51,137.3Z" fill="#c6aa55"/><path d="M69.44,132v4.75c-.88.25-1.68.44-2.41.58a11.14,11.14,0,0,1-2.16.21,7.67,7.67,0,0,1-4.79-1.41A5.29,5.29,0,0,1,58,131.62a6,6,0,0,1,2.06-4.82,7.55,7.55,0,0,1,5-1.64,8.91,8.91,0,0,1,2.18.26,6.76,6.76,0,0,1,1.94.81A6.48,6.48,0,0,0,68.7,128h-.24a4,4,0,0,0-1.45-1.3,4.22,4.22,0,0,0-1.91-.45,3.69,3.69,0,0,0-3.18,1.67,6.49,6.49,0,0,0-1.07,3.83,5.25,5.25,0,0,0,1.08,3.5A4.3,4.3,0,0,0,66,136.35a4.39,4.39,0,0,0,.84-.35v-4h2Z" fill="#c6aa55"/><path d="M86.61,131.28a6.56,6.56,0,0,1-1.49,4.37,5.09,5.09,0,0,1-4.07,1.86,4.82,4.82,0,0,1-3.83-1.64,7.56,7.56,0,0,1,0-8.9,5.17,5.17,0,0,1,4.14-1.82,4.65,4.65,0,0,1,4.12,2.07A7,7,0,0,1,86.61,131.28Zm-5.32-5.08A2.53,2.53,0,0,0,79,127.61a8.69,8.69,0,0,0-.82,4.26,6.54,6.54,0,0,0,.67,3.14,2.44,2.44,0,0,0,2.25,1.46,2.66,2.66,0,0,0,2.43-1.67A8.36,8.36,0,0,0,84.3,131a6.79,6.79,0,0,0-.69-3.23A2.48,2.48,0,0,0,81.29,126.2Z" fill="#c6aa55"/><path d="M92.93,137.26V125.47h1.72l7.43,8.05v-8.05l.36,0a1.71,1.71,0,0,0,.32,0l.69-.07v11.83H102c-1-1.08-1.93-2.17-2.9-3.26-.82-.92-1.78-2-2.87-3.13l-1.89-2v8.35h-.69Z" fill="#c6aa55"/></g></g></svg>