<svg id="Layer_1" data-name="Layer 1" xmlns="http://www.w3.org/2000/svg" viewBox="0 0 197.99 69.8"><defs><style>.cls-1{fill:#1f536b;}.cls-2{fill:#c6aa55;}</style></defs><title>Untitled-2</title><path class="cls-1" d="M7.32,66.35a2.79,2.79,0,0,1-1,2.08,4.4,4.4,0,0,1-3.21,1.14,7.61,7.61,0,0,1-2.69-.49L0,67.18A5.21,5.21,0,0,0,3.35,68.4,2.85,2.85,0,0,0,5,68a1.32,1.32,0,0,0,.66-1.11,1.4,1.4,0,0,0-.51-1.09,9.1,9.1,0,0,0-1.95-1.07,8.56,8.56,0,0,1-2.11-1.23,2.37,2.37,0,0,1,.24-3.74A4.65,4.65,0,0,1,4.1,59a8.68,8.68,0,0,1,2.33.33V61A3.36,3.36,0,0,0,4,60a2.45,2.45,0,0,0-1.46.4,1.21,1.21,0,0,0-.55,1,1.25,1.25,0,0,0,.45,1,8.23,8.23,0,0,0,1.81,1,12.52,12.52,0,0,1,2.25,1.24A2,2,0,0,1,7.32,66.35Z"/><path class="cls-1" d="M18.05,69.3H15.88V68.24a3.72,3.72,0,0,1-3,1.31A4,4,0,0,1,10.74,69a2.86,2.86,0,0,1-1.32-1.66,6.93,6.93,0,0,1-.15-1.72V61.17a6.53,6.53,0,0,0,0-1.1,1.23,1.23,0,0,0-.63-.86H11.5a1.23,1.23,0,0,0-.62.86,5.19,5.19,0,0,0-.07,1.1v4.46a3,3,0,0,0,.54,2,2.41,2.41,0,0,0,2,.84,2.59,2.59,0,0,0,2.24-1.08,2.18,2.18,0,0,0,.29-1.19v-5a6.32,6.32,0,0,0-.06-1.1,1.29,1.29,0,0,0-.62-.86h2.9a1.27,1.27,0,0,0-.63.86,6.32,6.32,0,0,0-.06,1.1v6.18a6.4,6.4,0,0,0,.06,1.1A1.25,1.25,0,0,0,18.05,69.3Z"/><path class="cls-1" d="M29.67,59.21a1.75,1.75,0,0,0-.66.68A2.84,2.84,0,0,0,28.85,61V69.8a4.45,4.45,0,0,1-2.1-1.62l-5.38-6.8V67.5a2.87,2.87,0,0,0,.17,1.13,1.59,1.59,0,0,0,.63.67H19.44a1.67,1.67,0,0,0,.66-.67,3.07,3.07,0,0,0,.16-1.13V61a2.87,2.87,0,0,0-.17-1.13,1.67,1.67,0,0,0-.63-.68h2.23a5.12,5.12,0,0,0,.37.57L27.73,67V61a2.65,2.65,0,0,0-.17-1.12,1.71,1.71,0,0,0-.64-.69Z"/><path class="cls-1" d="M38.09,66.35a2.78,2.78,0,0,1-.94,2.08,4.44,4.44,0,0,1-3.21,1.14,7.63,7.63,0,0,1-2.7-.49l-.47-1.9a5.23,5.23,0,0,0,3.36,1.22A2.84,2.84,0,0,0,35.76,68a1.32,1.32,0,0,0,.66-1.11,1.4,1.4,0,0,0-.51-1.09A8.59,8.59,0,0,0,34,64.68a8.77,8.77,0,0,1-2.11-1.23,2.37,2.37,0,0,1,.24-3.74A4.65,4.65,0,0,1,34.87,59a8.68,8.68,0,0,1,2.33.33V61a3.34,3.34,0,0,0-2.43-1,2.43,2.43,0,0,0-1.46.4,1.22,1.22,0,0,0-.56,1,1.25,1.25,0,0,0,.45,1,8.49,8.49,0,0,0,1.81,1,11.82,11.82,0,0,1,2.25,1.24A2,2,0,0,1,38.09,66.35Z"/><path class="cls-1" d="M49.37,69.3H46.46a1.23,1.23,0,0,0,.63-.85,6.4,6.4,0,0,0,.06-1.1V64.44H41.63v2.91a6.24,6.24,0,0,0,.06,1.1,1.21,1.21,0,0,0,.63.85H39.41a1.17,1.17,0,0,0,.62-.85,6.24,6.24,0,0,0,.06-1.1V61.17a6.17,6.17,0,0,0-.06-1.1,1.19,1.19,0,0,0-.62-.86h2.91a1.23,1.23,0,0,0-.63.86,6.17,6.17,0,0,0-.06,1.1v2.09h5.52V61.17a6.32,6.32,0,0,0-.06-1.1,1.24,1.24,0,0,0-.63-.86h2.91a1.23,1.23,0,0,0-.62.86,6.32,6.32,0,0,0-.06,1.1v6.18a6.4,6.4,0,0,0,.06,1.1A1.21,1.21,0,0,0,49.37,69.3Z"/><path class="cls-1" d="M53.8,69.3H50.89a1.17,1.17,0,0,0,.62-.85,6.24,6.24,0,0,0,.06-1.1V61.17a6.17,6.17,0,0,0-.06-1.1,1.19,1.19,0,0,0-.62-.86H53.8a1.23,1.23,0,0,0-.63.86,6.17,6.17,0,0,0-.06,1.1v6.18a6.24,6.24,0,0,0,.06,1.1A1.21,1.21,0,0,0,53.8,69.3Z"/><path class="cls-1" d="M65.41,59.21a1.65,1.65,0,0,0-.65.68A2.84,2.84,0,0,0,64.6,61V69.8a4.51,4.51,0,0,1-2.11-1.62l-5.37-6.8V67.5a2.91,2.91,0,0,0,.16,1.13,1.56,1.56,0,0,0,.64.67H55.19a1.58,1.58,0,0,0,.65-.67A2.87,2.87,0,0,0,56,67.5V61a2.91,2.91,0,0,0-.16-1.13,1.77,1.77,0,0,0-.64-.68h2.23c0,.06.15.25.37.57L63.48,67V61a2.82,2.82,0,0,0-.17-1.12,1.78,1.78,0,0,0-.64-.69Z"/><path class="cls-1" d="M73.83,67.3l-.7,2H66.74a1.17,1.17,0,0,0,.62-.85,6.61,6.61,0,0,0,.06-1.12V61.17a6.32,6.32,0,0,0-.06-1.1,1.19,1.19,0,0,0-.62-.86h5.1a1.72,1.72,0,0,0,.58-.09v1.79a1.92,1.92,0,0,0-.86-.5,3.26,3.26,0,0,0-1-.11,8.65,8.65,0,0,0-1.58.11v2.85H71a1.21,1.21,0,0,0,.52-.1v1.63a1.43,1.43,0,0,0-1.21-.42H69V68a11.3,11.3,0,0,0,1.89.16A4.81,4.81,0,0,0,73.83,67.3Z"/><path class="cls-1" d="M88,64.15a5.14,5.14,0,0,1-.8,2.78A4.68,4.68,0,0,1,85,68.79,11.09,11.09,0,0,1,81,69.3H78.51a1.81,1.81,0,0,0,.55-.68,4.78,4.78,0,0,0,.13-1.35v-6.1a6.17,6.17,0,0,0-.06-1.1,1.19,1.19,0,0,0-.62-.86h3.76a6,6,0,0,1,4,1.26A4.57,4.57,0,0,1,88,64.15Zm-1.68.16a4.17,4.17,0,0,0-1.07-2.94,4,4,0,0,0-3.06-1.16,6.56,6.56,0,0,0-1.42.18v7.67a6.79,6.79,0,0,0,1.13.1,4.94,4.94,0,0,0,2.94-.74A3.68,3.68,0,0,0,86.28,64.31Z"/><path class="cls-1" d="M92.2,69.3H89.29a1.21,1.21,0,0,0,.63-.85,8,8,0,0,0,0-1.1V61.17a7.89,7.89,0,0,0,0-1.1,1.23,1.23,0,0,0-.63-.86H92.2a1.19,1.19,0,0,0-.62.86,5.07,5.07,0,0,0-.07,1.1v6.18a5.13,5.13,0,0,0,.07,1.1A1.17,1.17,0,0,0,92.2,69.3Z"/><path class="cls-1" d="M104.05,69.3h-3.17c.37-.22.55-.42.55-.61a3.77,3.77,0,0,0-.26-.85l-.9-2.34H96.39l-.87,2.34a2.25,2.25,0,0,0-.18.78c0,.26.19.49.55.68H93.08a2.64,2.64,0,0,0,.77-.69,9.1,9.1,0,0,0,.65-1.37l2.71-6.74a2.12,2.12,0,0,0,.17-.69c0-.25-.16-.44-.47-.6h2.44l3.22,8a6.48,6.48,0,0,0,.68,1.34A2.66,2.66,0,0,0,104.05,69.3Zm-4.18-4.79-1.55-4-1.57,4Z"/><path class="cls-1" d="M118.26,69.3h-3a1.12,1.12,0,0,0,.64-1.16,7.31,7.31,0,0,0-.07-.86l-.81-6.56-3.44,8.79a5.13,5.13,0,0,1-.78-.77,3.93,3.93,0,0,1-.49-.92l-3-7.1-.9,6.77a7.18,7.18,0,0,0-.08.8,1.21,1.21,0,0,0,.61,1h-2.51a3.33,3.33,0,0,0,.83-2l.89-6.44c0-.43.08-.69.08-.79a1.06,1.06,0,0,0-.54-.84h2.69a1.43,1.43,0,0,0,.15.54l2.94,6.92L114,60.31a3.18,3.18,0,0,0,.29-1.1h2.66a1,1,0,0,0-.47,1,3.84,3.84,0,0,0,0,.55l.94,6.77a5.72,5.72,0,0,0,.25,1.15A1.77,1.77,0,0,0,118.26,69.3Z"/><path class="cls-1" d="M130.48,64.19A5,5,0,0,1,128.83,68a6,6,0,0,1-8,0,4.9,4.9,0,0,1-1.63-3.72,5,5,0,0,1,1.66-3.82A5.89,5.89,0,0,1,125,59a5.4,5.4,0,0,1,3.9,1.51,5.08,5.08,0,0,1,1.14,1.7A5.24,5.24,0,0,1,130.48,64.19Zm-1.75.24a4.63,4.63,0,0,0-1-3,3.58,3.58,0,0,0-2.89-1.34A3.71,3.71,0,0,0,122,61.16,4,4,0,0,0,121,64.05a4.65,4.65,0,0,0,1.24,3.25,3.44,3.44,0,0,0,2.68,1.15,3.69,3.69,0,0,0,2.79-1.11A4,4,0,0,0,128.73,64.43Z"/><path class="cls-1" d="M141.94,59.21a1.75,1.75,0,0,0-.66.68,3.08,3.08,0,0,0-.15,1.13V69.8A4.51,4.51,0,0,1,139,68.18l-5.38-6.8V67.5a2.87,2.87,0,0,0,.17,1.13,1.56,1.56,0,0,0,.64.67h-2.73a1.58,1.58,0,0,0,.65-.67,2.87,2.87,0,0,0,.16-1.13V61a2.7,2.7,0,0,0-.17-1.13,1.67,1.67,0,0,0-.63-.68H134c0,.06.15.25.37.57L140,67V61a2.85,2.85,0,0,0-.16-1.12,1.78,1.78,0,0,0-.64-.69Z"/><path class="cls-1" d="M152.72,64.15a5.14,5.14,0,0,1-.8,2.78,4.68,4.68,0,0,1-2.13,1.86,11.09,11.09,0,0,1-4.06.51h-2.46a1.81,1.81,0,0,0,.55-.68,5.19,5.19,0,0,0,.13-1.35v-6.1a6.17,6.17,0,0,0-.06-1.1,1.19,1.19,0,0,0-.62-.86H147a6.07,6.07,0,0,1,4,1.26A4.57,4.57,0,0,1,152.72,64.15Zm-1.68.16A4.17,4.17,0,0,0,150,61.37a4,4,0,0,0-3.06-1.16,6.56,6.56,0,0,0-1.42.18v7.67a6.69,6.69,0,0,0,1.13.1,5,5,0,0,0,2.94-.74A3.68,3.68,0,0,0,151,64.31Z"/><path class="cls-1" d="M166.9,69.3q-1.14.09-1.41.09a2,2,0,0,1-1.13-.31,7,7,0,0,1-1.24-1.21,28.89,28.89,0,0,1-2.68-3.82c1.7-.29,2.55-1,2.55-2.2a1.58,1.58,0,0,0-.51-1.22,1.93,1.93,0,0,0-1.35-.47,6.57,6.57,0,0,0-1.07.11v7.08a6.24,6.24,0,0,0,.06,1.1,1.19,1.19,0,0,0,.63.85h-2.91a1.17,1.17,0,0,0,.62-.85,6.24,6.24,0,0,0,.06-1.1V61.17a6.17,6.17,0,0,0-.06-1.1,1.19,1.19,0,0,0-.62-.86h3.59a3.71,3.71,0,0,1,2.26.59,2.33,2.33,0,0,1,1,2,2.29,2.29,0,0,1-.7,1.62,3.69,3.69,0,0,1-1.79,1A38.7,38.7,0,0,0,165,67.75,7.86,7.86,0,0,0,166.9,69.3Z"/><path class="cls-1" d="M169.93,69.3H167a1.17,1.17,0,0,0,.62-.85,6.24,6.24,0,0,0,.06-1.1V61.17a6.17,6.17,0,0,0-.06-1.1,1.19,1.19,0,0,0-.62-.86h2.9a1.22,1.22,0,0,0-.62.86,6.17,6.17,0,0,0-.06,1.1v6.18a6.24,6.24,0,0,0,.06,1.1A1.2,1.2,0,0,0,169.93,69.3Z"/><path class="cls-1" d="M180.1,59.21,176,69.75a6.63,6.63,0,0,1-1.35-1,4.78,4.78,0,0,1-.62-1.29L172,61.81c-.38-1-.62-1.65-.73-1.87a3,3,0,0,0-.6-.73h2.23a.88.88,0,0,0,0,.17,4.84,4.84,0,0,0,.35,1.25l2.52,6.86,2.16-5.68a5.89,5.89,0,0,0,.46-1.72.88.88,0,0,0-.54-.88Z"/><path class="cls-1" d="M188,67.3l-.71,2H181a1.2,1.2,0,0,0,.62-.85,6.61,6.61,0,0,0,.06-1.12V61.17a6.32,6.32,0,0,0-.06-1.1,1.22,1.22,0,0,0-.62-.86H186a1.74,1.74,0,0,0,.59-.09v1.79a1.92,1.92,0,0,0-.86-.5,3.3,3.3,0,0,0-1-.11,8.84,8.84,0,0,0-1.59.11v2.85h2.05a1.22,1.22,0,0,0,.53-.1v1.63a1.45,1.45,0,0,0-1.21-.42h-1.37V68a11.51,11.51,0,0,0,1.9.16A4.81,4.81,0,0,0,188,67.3Z"/><path class="cls-1" d="M198,69.3q-1.12.09-1.41.09a2,2,0,0,1-1.12-.31,6.61,6.61,0,0,1-1.25-1.21,28.89,28.89,0,0,1-2.68-3.82c1.7-.29,2.55-1,2.55-2.2a1.58,1.58,0,0,0-.51-1.22,1.92,1.92,0,0,0-1.34-.47,6.58,6.58,0,0,0-1.08.11v7.08a6.24,6.24,0,0,0,.06,1.1,1.21,1.21,0,0,0,.63.85h-2.91a1.17,1.17,0,0,0,.62-.85,6.24,6.24,0,0,0,.06-1.1V61.17a6.17,6.17,0,0,0-.06-1.1,1.19,1.19,0,0,0-.62-.86h3.59a3.69,3.69,0,0,1,2.26.59,2.33,2.33,0,0,1,1,2,2.29,2.29,0,0,1-.7,1.62,3.64,3.64,0,0,1-1.79,1,40.67,40.67,0,0,0,2.74,3.38A8,8,0,0,0,198,69.3Z"/><path class="cls-2" d="M129.77,34.87c2.94,1.6,4.61,3.45,4.61,5.42,0,6.07-15.92,11-35.55,11s-35.56-4.93-35.56-11c0-2,1.68-3.82,4.61-5.42-5.11,2-8.15,4.54-8.15,7.29,0,6.59,17.51,11.93,39.1,11.93s39.09-5.34,39.09-11.93C137.92,39.41,134.88,36.89,129.77,34.87Z"/><path class="cls-2" d="M74.38,45.71c-2.31-1.26-3.63-2.72-3.63-4.28,0-3.58,7-6.66,17-8l3.07,2.92c-4.72.84-7.89,2.4-7.89,4.19,0,1.11,1.23,2.14,3.3,3-1.19-.65-1.87-1.4-1.87-2.2,0-1.7,3-3.17,7.54-3.93l5.8,5.53c-3.75-.14-7.54-1-7.54-2.31,0-.48.41-.93,1.12-1.32-1.24.49-2,1.11-2,1.77,0,1.6,4.25,2.9,9.5,2.9h0c5.24,0,9.49-1.3,9.49-2.9,0-.66-.73-1.28-2-1.77.71.39,1.12.84,1.12,1.32,0,1.34-3.88,2.17-7.55,2.31l5.8-5.53c4.49.76,7.54,2.23,7.54,3.93,0,.8-.68,1.55-1.87,2.2,2.07-.82,3.31-1.85,3.31-3,0-1.79-3.18-3.35-7.9-4.19l3.07-2.92c10,1.32,17,4.4,17,8,0,1.56-1.33,3-3.64,4.28,4-1.59,6.43-3.59,6.43-5.75,0-3.77-7.24-7-17.71-8.53l14.92-14.21.71-.68-.3-.93L126,11.44l-.15-.47-.39-.29-9.74-7.33-.19-.15-.24-.08-8.86-3L106.16,0H91.5l-.25.08-8.86,3-.23.08-.2.15-9.73,7.33-.4.29-.15.47-1.35,4.17-.3.93.71.68L85.67,31.43C75.2,32.94,68,36.19,68,40,68,42.12,70.35,44.12,74.38,45.71ZM101,36.9l-2.14,3.25L96.67,36.9l-.73-1.1L94,32.87,92.6,30.73,89,25.23h19.66L105,30.72l-1.41,2.15-1.93,2.92ZM88.5,23.41l3.12-10.58H106l3.1,10.58H88.5ZM120.37,20,108.8,31l-2.16,2.05L104,35.64h0l1.3-2,.44-.67,1.4-2.13L111,25l9.4-5Zm-5.12-13.6.06-.25,8.38,6.31.45,1.38h0l-6.58-4.43L115,7.68ZM119,12.57,124.05,16l-13.16,7-3.11-10.62,6.1-3.23ZM91.89,2.47h13.84l7.94,2.72-.53,2.28h0L106.46,11H91.16L84.48,7.47,84,5.19ZM73.48,13.86l.45-1.38,8.38-6.31.06.25.29,1.26h0L78,10.8l-4.54,3.06Zm5.36-1.42,4.9-3.3h0l6.1,3.23h0L86.73,23h0L73.57,16ZM77.25,20h0l9.36,5,0,0,3.87,5.86L91.92,33l.45.67,1.29,2h0L91,33.09,88.82,31Z"/><path class="cls-2" d="M79.35,37.2c-3.21,1.27-5.13,2.86-5.13,4.58,0,4.15,11,7.51,24.61,7.51s24.6-3.36,24.6-7.51c0-1.72-1.91-3.31-5.13-4.58,1.85,1,2.9,2.17,2.9,3.41,0,3.82-10,6.92-22.37,6.92s-22.38-3.1-22.38-6.92C76.45,39.37,77.5,38.2,79.35,37.2Z"/></svg>