<svg id="Layer_1" data-name="Layer 1" xmlns="http://www.w3.org/2000/svg" viewBox="0 0 165 70.39"><defs><style>.cls-1{fill:#0068a6;}.cls-2{fill:#09304c;}</style></defs><title>Untitled-2</title><path class="cls-1" d="M42.25,42.25h0A14.09,14.09,0,0,0,28.16,28.16H42.25A14.09,14.09,0,1,0,28,42.24H14.08A14.09,14.09,0,0,0,28.16,56.32V70.39A14.08,14.08,0,0,0,42.25,56.31H28.34A14.08,14.08,0,0,0,42.25,42.25Z"/><path class="cls-1" d="M56.33,42.25A14.09,14.09,0,0,0,42.25,28.16V42.24h0V70.39A14.08,14.08,0,0,0,56.33,56.31H42.59A14.07,14.07,0,0,0,56.33,42.25Z"/><path class="cls-1" d="M42.25,14.08V28.16H56.33A14.09,14.09,0,0,0,42.25,14.08Z"/><path class="cls-1" d="M28.16,0A14.08,14.08,0,0,0,14.08,14.08H28.16Z"/><path class="cls-1" d="M0,14.08H14.08V0A14.08,14.08,0,0,0,0,14.08Z"/><path class="cls-1" d="M14.08,14.08a14.09,14.09,0,0,0,0,28.17h0V14.08Z"/><path class="cls-1" d="M14.08,56.33V42.25H0A14.08,14.08,0,0,0,14.08,56.33Z"/><path class="cls-2" d="M69.93,33.28a8.3,8.3,0,0,1-3.13-.56A8.8,8.8,0,0,1,64.1,31l1-1.18a8.47,8.47,0,0,0,2.26,1.52,6.56,6.56,0,0,0,2.63.5,3.62,3.62,0,0,0,2.32-.69,2.12,2.12,0,0,0,.86-1.74v0a2.31,2.31,0,0,0-.16-.89,1.82,1.82,0,0,0-.57-.72,4.06,4.06,0,0,0-1.13-.6,17.61,17.61,0,0,0-1.85-.51A13.8,13.8,0,0,1,67.33,26a5.3,5.3,0,0,1-1.5-.83A3.14,3.14,0,0,1,65,24.06a3.77,3.77,0,0,1-.28-1.53v0A3.55,3.55,0,0,1,65,20.94a3.86,3.86,0,0,1,1-1.23,4.77,4.77,0,0,1,1.49-.82,5.93,5.93,0,0,1,1.88-.29A7.61,7.61,0,0,1,72.1,19a8.54,8.54,0,0,1,2.28,1.31l-.94,1.25a7.08,7.08,0,0,0-2-1.19,6.24,6.24,0,0,0-2.11-.36,3.46,3.46,0,0,0-2.23.66,2,2,0,0,0-.81,1.64v0a2.38,2.38,0,0,0,.16.91A1.89,1.89,0,0,0,67,24a4.44,4.44,0,0,0,1.18.62,16,16,0,0,0,1.93.52,8.5,8.5,0,0,1,3.52,1.46,3.19,3.19,0,0,1,1.13,2.57v.05a3.78,3.78,0,0,1-.37,1.66,3.74,3.74,0,0,1-1,1.27,4.32,4.32,0,0,1-1.53.82A6.45,6.45,0,0,1,69.93,33.28Z"/><path class="cls-2" d="M83,33.3a7.14,7.14,0,0,1-2.42-.39,5.11,5.11,0,0,1-1.88-1.19,5.25,5.25,0,0,1-1.21-1.94,7.65,7.65,0,0,1-.43-2.68V18.8h1.61V27a5.06,5.06,0,0,0,1.15,3.57,4.76,4.76,0,0,0,6.36.06,4.86,4.86,0,0,0,1.16-3.53V18.8h1.61V27a7.9,7.9,0,0,1-.43,2.75,5.33,5.33,0,0,1-1.21,2,5.05,5.05,0,0,1-1.88,1.2A7.16,7.16,0,0,1,83,33.3Z"/><path class="cls-2" d="M91.94,18.8h1.51l9,11.45V18.8H104V33.08h-1.29L93.51,21.37V33.08H91.94Z"/><path class="cls-2" d="M112.13,33.28a8.34,8.34,0,0,1-3.13-.56A9,9,0,0,1,106.3,31l1-1.18a8.63,8.63,0,0,0,2.26,1.52,6.56,6.56,0,0,0,2.63.5,3.62,3.62,0,0,0,2.32-.69,2.11,2.11,0,0,0,.87-1.74v0a2.31,2.31,0,0,0-.17-.89,1.82,1.82,0,0,0-.57-.72,4.06,4.06,0,0,0-1.13-.6,16.94,16.94,0,0,0-1.85-.51,14.48,14.48,0,0,1-2.13-.61,5.59,5.59,0,0,1-1.5-.83,3.11,3.11,0,0,1-.87-1.15,3.76,3.76,0,0,1-.29-1.53v0a3.56,3.56,0,0,1,.35-1.55,3.73,3.73,0,0,1,1-1.23,4.66,4.66,0,0,1,1.49-.82,5.87,5.87,0,0,1,1.87-.29,7.7,7.7,0,0,1,2.75.44,8.34,8.34,0,0,1,2.27,1.31l-.94,1.25a6.82,6.82,0,0,0-2-1.19,6.2,6.2,0,0,0-2.11-.36,3.42,3.42,0,0,0-2.22.66,2,2,0,0,0-.82,1.64v0a2.38,2.38,0,0,0,.17.91,1.77,1.77,0,0,0,.58.73,4.36,4.36,0,0,0,1.19.62,15.5,15.5,0,0,0,1.93.52,8.39,8.39,0,0,1,3.51,1.46A3.19,3.19,0,0,1,117,29.2v.05a3.78,3.78,0,0,1-.36,1.66,4,4,0,0,1-1,1.27,4.45,4.45,0,0,1-1.54.82A6.45,6.45,0,0,1,112.13,33.28Z"/><path class="cls-2" d="M119.48,18.8h1.61v6.35h8.24V18.8h1.61V33.08h-1.61V26.65h-8.24v6.43h-1.61Z"/><path class="cls-2" d="M134.31,18.8h1.61V33.08h-1.61Z"/><path class="cls-2" d="M139.28,18.8h1.51l9,11.45V18.8h1.57V33.08h-1.29l-9.22-11.71V33.08h-1.57Z"/><path class="cls-2" d="M154.58,18.8H164.9v1.47h-8.71v4.88H164v1.46h-7.79v5H165v1.47H154.58Z"/><path class="cls-2" d="M63.51,39.76H67l3.74,10.06,3.73-10.06h3.38L72.05,54.14H69.28Z"/><path class="cls-2" d="M79.21,39.76H90v2.8H82.31v2.89H89v2.8H82.31v3h7.75V54H79.21Z"/><path class="cls-2" d="M92.06,39.76H95l6.69,8.79V39.76h3.1V54h-2.67L95.16,45V54h-3.1Z"/><path class="cls-2" d="M107.5,39.76h3.14V54H107.5Z"/><path class="cls-2" d="M120.09,54.29a7.25,7.25,0,0,1-2.92-.58,7.07,7.07,0,0,1-2.32-1.56,6.75,6.75,0,0,1-1.53-2.33,7.5,7.5,0,0,1-.55-2.88v0a7.36,7.36,0,0,1,.55-2.86,7.14,7.14,0,0,1,3.87-3.94,7.6,7.6,0,0,1,3-.58,9.37,9.37,0,0,1,1.83.16,7.77,7.77,0,0,1,1.5.45,6.79,6.79,0,0,1,1.24.69,9.16,9.16,0,0,1,1.06.9l-2,2.31a7.51,7.51,0,0,0-1.7-1.19,4.43,4.43,0,0,0-2-.43,4,4,0,0,0-1.66.35,3.94,3.94,0,0,0-1.32,1,4.51,4.51,0,0,0-.85,1.42,4.65,4.65,0,0,0-.31,1.72v0a4.83,4.83,0,0,0,.31,1.74,4.38,4.38,0,0,0,.84,1.42,4,4,0,0,0,1.31,1,3.9,3.9,0,0,0,1.68.36,4.34,4.34,0,0,0,2.07-.45,7.93,7.93,0,0,0,1.68-1.22l2,2a10.3,10.3,0,0,1-1.14,1.06,6.49,6.49,0,0,1-1.29.8,6.33,6.33,0,0,1-1.54.51A9,9,0,0,1,120.09,54.29Z"/><path class="cls-2" d="M127.78,39.76h3.14V54h-3.14Z"/><path class="cls-2" d="M138.57,39.66h2.9L147.59,54H144.3l-1.3-3.2h-6L135.65,54h-3.2Zm3.3,8.38L140,43.41,138.08,48Z"/></svg>