<svg xmlns="http://www.w3.org/2000/svg" xmlns:xlink="http://www.w3.org/1999/xlink" viewBox="0 0 93.56 132.69"><defs><linearGradient id="linear-gradient" x1="14.82" y1="54.19" x2="79.2" y2="54.19" gradientUnits="userSpaceOnUse"><stop offset="0" stop-color="#fded81"/><stop offset="0.3" stop-color="#be9746"/><stop offset="0.69" stop-color="#d2b469"/><stop offset="0.92" stop-color="#be9746"/><stop offset="1" stop-color="#fff0a5"/></linearGradient></defs><title>SunshineTower</title><g id="Layer_2" data-name="Layer 2"><g id="Layer_1-2" data-name="Layer 1"><path d="M1.76,117.34v.91h5v-1.34H1.86a3,3,0,0,1-.79-.08,1.15,1.15,0,0,1-.51-.28A1.24,1.24,0,0,1,.28,116a2.62,2.62,0,0,1-.1-.79V114a1.82,1.82,0,0,1,.38-1.3,1.8,1.8,0,0,1,1.3-.37H6.7a3,3,0,0,1,.79.09,1.37,1.37,0,0,1,.52.28,1.09,1.09,0,0,1,.28.52,3,3,0,0,1,.08.78v.53l-1.76.36V114H1.94v1.27H6.81a2.88,2.88,0,0,1,.78.09,1.24,1.24,0,0,1,.52.28,1.09,1.09,0,0,1,.28.52,3,3,0,0,1,.09.78v1.29a2.88,2.88,0,0,1-.09.78,1,1,0,0,1-.28.52,1.14,1.14,0,0,1-.52.28,2.88,2.88,0,0,1-.78.09H1.66a2.88,2.88,0,0,1-.78-.09,1.06,1.06,0,0,1-.51-.28A1,1,0,0,1,.09,119a2.88,2.88,0,0,1-.09-.78v-.56Z" fill="#163639"/><path d="M14.48,118.25h5v-5.91h1.76v5.92a2.92,2.92,0,0,1-.08.78,1.06,1.06,0,0,1-.8.8,2.93,2.93,0,0,1-.78.09H14.39a3,3,0,0,1-.79-.09,1.06,1.06,0,0,1-.51-.28,1.13,1.13,0,0,1-.28-.52,2.88,2.88,0,0,1-.09-.78v-5.92h1.76Z" fill="#163639"/><path d="M25.76,112.34h1.38l6.13,5.17v-5.17H35v7.59H33.66l-6.14-5.16v5.16H25.76Z" fill="#163639"/><path d="M41,117.34v.91h5v-1.34H41.06a2.92,2.92,0,0,1-.78-.08,1,1,0,0,1-.51-.28,1.26,1.26,0,0,1-.29-.52,3,3,0,0,1-.09-.79V114a1.82,1.82,0,0,1,.38-1.3,1.79,1.79,0,0,1,1.29-.37h4.85a2.88,2.88,0,0,1,.78.09,1.23,1.23,0,0,1,.52.28,1.1,1.1,0,0,1,.29.52,3.53,3.53,0,0,1,.08.78v.53l-1.76.36V114H41.15v1.27H46a2.91,2.91,0,0,1,.79.09,1.15,1.15,0,0,1,.51.28,1.1,1.1,0,0,1,.29.52,3,3,0,0,1,.09.78v1.29a2.88,2.88,0,0,1-.09.78,1.06,1.06,0,0,1-.8.8,2.91,2.91,0,0,1-.79.09H40.87a2.88,2.88,0,0,1-.78-.09,1.06,1.06,0,0,1-.8-.8,3.4,3.4,0,0,1-.08-.78v-.56Z" fill="#163639"/><path d="M52,112.34h1.76v2.83h5.5v-2.83H61v7.59H59.27v-3.15h-5.5v3.15H52Z" fill="#163639"/><path d="M65.58,112.34h1.76v7.59H65.58Z" fill="#163639"/><path d="M71.9,112.34h1.37l6.14,5.17v-5.17h1.76v7.59H79.79l-6.13-5.16v5.16H71.9Z" fill="#163639"/><path d="M85.72,112.34h7.76V114h-6v1.14H91v1.61H87.48v1.47h6.08v1.68H85.72Z" fill="#163639"/><path d="M21.84,132.69H20.56v-6.4H17.09V125.1h8.22v1.19H21.84Z" fill="#163639"/><path d="M37.47,131a2.53,2.53,0,0,1-.1.79,1.18,1.18,0,0,1-.28.52,1.13,1.13,0,0,1-.52.28,2.88,2.88,0,0,1-.78.09H30.65a2.88,2.88,0,0,1-.78-.09,1.15,1.15,0,0,1-.51-.28,1.1,1.1,0,0,1-.29-.52A3.43,3.43,0,0,1,29,131v-4.24a1.8,1.8,0,0,1,.37-1.3,1.76,1.76,0,0,1,1.29-.37h5.14a1.4,1.4,0,0,1,1.68,1.67Zm-1.28.48v-5.2H30.25v5.2Z" fill="#163639"/><path d="M40.91,125.1h1.38l2,5.79,2.15-5.79h1l2.08,5.79,2-5.79h1.2L50,132.69H48.94L46.83,127l-2.11,5.74H43.66Z" fill="#163639"/><path d="M56.34,125.1h7.29v1.19h-6v2h3.7v1.12h-3.7v2.1h6.09v1.2H56.34Z" fill="#163639"/><path d="M68.06,132.69V125.1h6a4.12,4.12,0,0,1,.68,0,1.41,1.41,0,0,1,.46.17,1,1,0,0,1,.44.5,2.87,2.87,0,0,1,.12,1v1.39a4.71,4.71,0,0,1,0,.61,1.6,1.6,0,0,1-.11.39,1,1,0,0,1-.52.52,2.82,2.82,0,0,1-1,.15h-.71l3.1,2.86h-1.8l-3-2.86H69.33v2.86Zm5.59-4a1,1,0,0,0,.68-.17,1,1,0,0,0,.18-.68v-.71a1,1,0,0,0-.18-.68,1,1,0,0,0-.68-.18H69.33v2.42Z" fill="#163639"/><path d="M79,93.47,74.47,89a.87.87,0,0,0-1.23,0l-3.86,3.86-3.23-3.23L70,85.76a.87.87,0,0,0,0-1.23l-4.49-4.48a.87.87,0,0,0-1.23,0l-3,3V5.3A.83.83,0,0,0,61,4.69L56.58.26h0A.89.89,0,0,0,56,0a.88.88,0,0,0-.62.26L50.92,4.69a.86.86,0,0,0-.25.61v44L47,53l-3.65-3.64V5.3a.86.86,0,0,0-.25-.61L38.7.26A.86.86,0,0,0,38.08,0a.89.89,0,0,0-.61.25h0L33,4.69a.87.87,0,0,0-.26.61V83.08l-3-3a.87.87,0,0,0-1.23,0L24,84.53a.87.87,0,0,0,0,1.23l3.86,3.86-3.24,3.24L20.79,89a.87.87,0,0,0-1.23,0l-4.48,4.48a.88.88,0,0,0,0,1.24l4.48,4.48a.88.88,0,0,0,1.23,0l3.87-3.87,3.87,3.87a.85.85,0,0,0,.61.25.88.88,0,0,0,.62-.25l3.85-3.86,3.86,3.86.06,0,8.88,8.88a.88.88,0,0,0,1.23,0l8.88-8.88.06,0,3.86-3.86,3.85,3.86a.88.88,0,0,0,.62.25.85.85,0,0,0,.61-.25l3.86-3.86,3.86,3.86a.85.85,0,0,0,.61.25.88.88,0,0,0,.62-.25L79,94.71A.88.88,0,0,0,79,93.47Zm-18.51-.62L57.2,89.61l3.23-3.23,3.24,3.24Zm-26.83,0-3.22-3.23,3.23-3.24,3.23,3.23ZM39,47.35,41.64,50V83L39,80.31ZM54.74,89.61,51.5,92.85l-3.24-3.24,3.24-3.24Zm-9,0-3.24,3.24-3.23-3.24,3.23-3.24ZM52.41,50l2.69-2.69v33L52.41,83ZM64.91,81.9l3.25,3.25L64.91,88.4l-3.25-3.25Zm-5.38,2.92L56,88.37l-3.24-3.24,3.85-3.85a.83.83,0,0,0,.26-.61V3l2.69,2.69ZM52.41,5.66,55.1,3V44.89l-2.69,2.69Zm-6,49.15a.88.88,0,0,0,1.23,0l3-3V84.72L47,88.36l-3.65-3.64V51.78Zm-4.77-7.23L39,44.89V3l2.69,2.69ZM34.52,5.66,37.21,3v77.7a.87.87,0,0,0,.26.61l3.85,3.85-3.24,3.24-3.56-3.55ZM29.14,81.9l3.25,3.25L29.14,88.4l-3.25-3.25Zm-9,15.44-3.25-3.25,3.25-3.25,3.25,3.25Zm9,0-3.25-3.25,3.25-3.25,3.25,3.25Zm8.94-6.5,3.24,3.24-3.25,3.25-3.24-3.24Zm9,15.43-7.71-7.7,3.86-3.86.06-.07L47,90.85l3.79,3.79,0,.07,3.86,3.86ZM56,97.33l-3.25-3.25L56,90.84l3.25,3.25Zm8.93,0-3.25-3.25,3.25-3.25,3.25,3.25Zm8.94,0L70.6,94.09l3.25-3.25,3.25,3.25Z" fill="url(#linear-gradient)"/><path d="M11.82,130.47l-1.65-1.65a.14.14,0,0,1,0-.21L11.82,127a.15.15,0,0,1,.21,0l1.65,1.65a.14.14,0,0,1,0,.21L12,130.47A.14.14,0,0,1,11.82,130.47Zm69.92,0,1.65-1.65a.15.15,0,0,0,0-.21L81.74,127a.14.14,0,0,0-.21,0l-1.65,1.65a.15.15,0,0,0,0,.21l1.65,1.65A.14.14,0,0,0,81.74,130.47Z" fill="#163639"/></g></g></svg>