<svg id="Layer_1"  xmlns="http://www.w3.org/2000/svg" viewBox="0 0 123.39 137.64"><defs><style>.cls-1{fill:#c6aa55;}</style></defs><title>Untitled-2</title><path class="cls-1" d="M75.89,80.63l-.36-.16,0,0c.1-.17.18-.35.27-.53l.23-.43c.31-.61.61-1.24.89-1.87l.1-.24c.25-.57.49-1.15.72-1.73,0-.15.11-.29.17-.43l.12-.32.37.18.37.18.8.34.27.11c.36.14.73.27,1.1.38l.25.07.87.23.39.08c.26.06.51.1.77.14l.41.07.81.09.37,0c.39,0,.78,0,1.17,0a1.47,1.47,0,1,0,0-2.93c-.33,0-.67,0-1,0l-.32,0-.67-.08-.37-.06-.6-.11-.39-.09L82,73.35l-.38-.11L81,73l-.35-.13-.63-.27-.28-.12c-.29-.14-.58-.29-.87-.46l.06-.23c.08-.26.15-.53.22-.8l.21-.78c.06-.27.12-.55.19-.83s.11-.51.17-.76.11-.57.16-.85.1-.51.14-.77.09-.57.13-.85.07-.41.1-.61a.46.46,0,0,1,.07.07l.3.25a3.11,3.11,0,0,0,.28.23l.32.23.29.19.35.21.31.17.37.17.32.14.4.14.32.11.44.1.31.08.51.07.26,0c.26,0,.52,0,.79,0a1.47,1.47,0,1,0,0-2.93l-.5,0-.17,0-.31,0-.21,0-.27-.06-.22-.08L84,64.53l-.23-.1-.21-.09-.22-.12-.19-.11L83,64l-.18-.12-.2-.16-.17-.14c-.06,0-.12-.12-.18-.18s-.11-.09-.15-.14l-.17-.2-.14-.16-.15-.21-.13-.18-.13-.22-.11-.19c0-.07-.07-.15-.11-.23l-.09-.2L81,61.4c0-.07,0-.14-.08-.22l-.06-.25-.06-.22a2,2,0,0,1,0-.26,1.55,1.55,0,0,1,0-.21V60c0-.15,0-.3,0-.44s0-.3,0-.44V23.21a1.46,1.46,0,0,0-.94-1.36l-.22-.13h0L75.6,19.46l-3.93-2.27V6.67a1.47,1.47,0,0,0-1-1.36l-8.61-5L62,.27,61.91.2,61.79.13l-.13,0-.14,0-.13,0-.16,0h-.35A1.45,1.45,0,0,0,60.4.2l-9,5.17h0l-.06,0a1.46,1.46,0,0,0-.73,1.27,1.32,1.32,0,0,0,.06.39v24L42.42,35.9h0l-.06,0a1.49,1.49,0,0,0-.73,1.27,1.34,1.34,0,0,0,.06.4V57.35c0,.44,0,.89,0,1.34v.15h0v.28c0,.16,0,.32,0,.48s0,.32,0,.47v.17a5.29,5.29,0,0,1-5.25,4.65,1.47,1.47,0,1,0,0,2.93A8.19,8.19,0,0,0,42,65.58c0,.21.07.42.1.63s.08.55.13.83.09.52.14.78.1.56.16.83.11.52.17.78.13.55.19.82l.21.78c.07.27.14.54.22.8l.06.23c-.29.17-.58.32-.87.46l-.28.12-.63.27-.35.13-.58.2-.38.11-.58.15-.39.09-.6.11c-.13,0-.25,0-.38.06l-.66.08-.32,0-1,0a1.47,1.47,0,1,0,0,2.93c.39,0,.78,0,1.17,0l.37,0,.8-.09.42-.07c.26,0,.51-.08.76-.14l.4-.08.87-.23.25-.07c.37-.11.74-.24,1.1-.38l.27-.11.8-.34.37-.18.37-.18.12.32c.06.14.12.28.17.43.23.58.47,1.16.72,1.73l.1.24c.28.63.58,1.26.89,1.87l.22.43c.1.18.18.36.28.53l-.05,0-.36.16a10.45,10.45,0,0,1-1,.44l-.51.21c-.28.11-.56.22-.84.31l-.57.19-.82.25-.58.16-.84.2-.59.12-.87.14-.56.08-1,.1-.48,0c-.48,0-1,0-1.45,0a1.47,1.47,0,1,0,0,2.93q.83,0,1.65-.06l.54,0,1.09-.11.64-.1,1-.16.66-.14.94-.22.67-.18.92-.28.65-.22.92-.35.61-.25,1-.43.53-.26.15-.06.35.55.26.4c.38.58.77,1.15,1.18,1.71.06.08.12.15.17.23.37.5.74,1,1.12,1.46l.3.37.21.26-.13.07c-.51.28-1,.54-1.57.79-.08,0-.17.08-.25.12-.55.26-1.1.49-1.65.71l-.18.07c-.57.22-1.15.43-1.73.62l-.06,0c-.58.19-1.18.36-1.77.51l-.23.07c-.58.14-1.15.27-1.73.38l-.3.06c-.57.11-1.15.2-1.73.27l-.29,0c-.6.07-1.19.13-1.78.17h-.22c-.63,0-1.26.06-1.89.06a1.46,1.46,0,1,0,0,2.92c.4,0,.79,0,1.19,0l.4,0,.79,0,.47,0c.24,0,.48,0,.71-.06l.51-.06.67-.08.52-.07.65-.11.53-.09.64-.12L44,94l.63-.14.52-.13.62-.17.53-.14.61-.19.52-.16.61-.21.5-.18.61-.24.49-.19.62-.26.47-.2.63-.29.45-.21.67-.34.38-.2c.28-.14.56-.3.84-.46l.2-.11h0c.21.22.43.43.64.64s.2.21.31.31c.5.49,1,1,1.54,1.44l.33.29c.47.41,1,.82,1.44,1.21l.29.24.18.14A41.12,41.12,0,0,1,36.4,101a1.47,1.47,0,1,0,0,2.93,44,44,0,0,0,24.76-7.59,44,44,0,0,0,24.77,7.59,1.47,1.47,0,1,0,0-2.93,41.12,41.12,0,0,1-22.24-6.49l.17-.14.31-.25c.48-.39,1-.78,1.42-1.19l.34-.3c.53-.47,1-.95,1.54-1.44.11-.1.21-.21.31-.31l.64-.64h0l.2.11c.28.16.55.32.84.46l.38.2.67.34.45.21.63.29.47.2.62.26.49.19.61.24.5.18.61.21.52.16.61.19.52.14.62.17.53.13.63.14.52.12.64.12.53.09.65.11.52.07.67.08.51.06c.23,0,.47,0,.71.06l.47,0,.79,0,.4,0c.4,0,.79,0,1.19,0a1.46,1.46,0,1,0,0-2.92c-.63,0-1.26,0-1.89-.06h-.22c-.59,0-1.18-.1-1.78-.17l-.29,0c-.58-.07-1.16-.16-1.73-.27l-.3-.06c-.58-.11-1.16-.24-1.73-.38l-.23-.07c-.59-.15-1.19-.32-1.77-.51l-.06,0c-.58-.19-1.16-.4-1.73-.62L74,89.66c-.55-.22-1.1-.45-1.65-.71-.08,0-.17-.07-.25-.12-.53-.25-1.06-.51-1.58-.79L70.42,88l.21-.26.3-.37c.38-.48.75-1,1.12-1.46,0-.08.11-.15.17-.23q.61-.84,1.17-1.71l.27-.4L74,83l.15.06.53.26,1,.43.61.25.92.35.65.22.92.28.67.18.94.22.66.14,1,.16.64.1,1.09.11.54,0q.82.06,1.65.06a1.47,1.47,0,1,0,0-2.93c-.48,0-1,0-1.45,0l-.48,0-1-.1-.56-.08-.88-.14L81,82.39l-.84-.2L79.59,82l-.82-.25-.57-.19c-.28-.09-.56-.2-.84-.31l-.51-.21A10.45,10.45,0,0,1,75.89,80.63Zm-5,1.76c-.33.5-.67,1-1,1.49L69.8,84c-.39.52-.78,1-1.19,1.53-.1.14-.21.27-.32.4l-.4.47-.52-.34-.43-.31c-.52-.38-1-.76-1.53-1.17a.6.6,0,0,0-.08-.08c-.47-.39-.93-.79-1.37-1.2l-.39-.38c-.14-.12-.26-.26-.4-.39l.18-.21.66-.81.3-.39c.2-.25.39-.51.58-.77l.28-.38c.24-.33.47-.68.7-1l.09-.14c.25-.39.5-.79.74-1.19l.06-.1.09.08c.33.35.66.69,1,1l0,0c.33.31.67.61,1,.9l.34.28c.25.21.51.42.78.62l.38.29.84.59.23.16c-.09.15-.17.3-.27.44S71,82.24,70.91,82.39Zm-5.62,6.8c-.39.38-.79.76-1.19,1.12l-.33.3c-.5.44-1,.86-1.53,1.28l-.35.27-.73.55-.72-.55-.35-.27q-.78-.63-1.53-1.29l-.31-.28c-.42-.37-.82-.75-1.22-1.13l-.35-.35c-.08-.07-.15-.16-.23-.24l.18-.13c.28-.19.55-.39.82-.59l.32-.23,1.07-.86.23-.19.83-.72.34-.31c.24-.22.49-.45.73-.69.06-.06.13-.12.19-.19l.2.19c.24.24.49.47.74.7l.32.29.88.76.18.16c.36.29.72.58,1.1.87l.27.2.86.62.17.12-.23.24ZM52.53,84l-.09-.13c-.35-.49-.69-1-1-1.49l-.3-.45c-.09-.14-.17-.29-.26-.44l.23-.16.84-.59.38-.29c.27-.2.53-.41.78-.62l.34-.28c.34-.29.68-.59,1-.9l0,0c.34-.32.67-.66,1-1l.1-.09.06.1c.24.4.49.8.74,1.19l.08.12c.23.36.47.7.72,1l.26.36c.19.27.39.53.59.79l.29.37q.34.43.69.84c0,.06.1.13.16.19-.14.13-.26.27-.4.4l-.39.36c-.45.42-.9.83-1.37,1.22a.27.27,0,0,0-.08.07q-.75.6-1.53,1.17l-.43.31-.52.34-.4-.47c-.11-.13-.22-.26-.32-.4C53.31,85,52.92,84.53,52.53,84Zm19.31-5.84L71.6,78c-.36-.28-.72-.58-1.06-.88l-.25-.23c-.28-.25-.56-.51-.82-.78-.08-.08-.17-.16-.25-.25-.32-.33-.64-.67-.94-1l0-.06c.08-.16.14-.32.21-.48s.26-.55.38-.83.26-.63.38-.95.23-.56.33-.85.23-.64.33-1,.19-.57.28-.86.19-.65.28-1,.16-.58.23-.87c0-.1,0-.2.08-.3l.12.22.21.37c.09.16.18.31.28.46s.15.24.23.36l.3.45c.09.11.17.23.25.34s.22.29.34.43l.25.32.39.45.25.27c.15.17.32.33.48.49s.13.14.2.2c.23.22.46.44.71.65l.2.16.5.41-.27.75-.18.47c-.23.6-.47,1.2-.74,1.79,0,.11-.1.22-.15.34-.22.49-.46,1-.7,1.47-.08.16-.16.32-.25.48s-.14.26-.21.39l-.17-.12C72.45,78.62,72.14,78.4,71.84,78.17ZM64,76.4l-.18.29c-.2.33-.41.64-.62,1-.07.1-.14.2-.2.3-.27.39-.55.77-.83,1.14l-.13.17c-.25.33-.51.65-.77,1l-.13.15L61,80.22c-.26-.31-.52-.63-.76-1l-.14-.18c-.29-.37-.56-.75-.83-1.14l-.2-.3c-.21-.32-.42-.64-.62-1l-.18-.28c-.24-.4-.48-.81-.71-1.22l0-.07,0,0,.2-.28.39-.56.21-.32.34-.53.21-.35.3-.51.21-.38.27-.51.2-.39.25-.51.18-.4.23-.51c.05-.14.11-.27.16-.41s.14-.35.21-.53l.15-.4.06-.17c0,.05.05.1.07.16l.15.42c.07.17.13.35.2.52l.18.41c.07.17.14.34.22.51l.18.4c.08.18.17.35.25.52s.13.25.2.38l.27.51.21.38c.09.17.2.34.3.51l.21.36.34.51.21.34.39.54c.06.1.13.19.2.29l0,0,0,.08C64.5,75.6,64.26,76,64,76.4Zm-10-1.57c-.31.35-.62.69-.94,1-.08.09-.17.17-.25.25-.27.27-.54.53-.82.78l-.25.23c-.34.3-.7.6-1.07.89l-.21.15c-.32.25-.64.48-1,.7l-.15.11-.21-.38c-.08-.17-.17-.33-.25-.49-.24-.49-.48-1-.7-1.47l-.16-.34c-.26-.59-.5-1.19-.74-1.79-.06-.15-.11-.31-.17-.47l-.27-.75.54-.44.16-.13.72-.65.15-.16c.18-.17.35-.35.52-.53l.23-.25c.14-.16.28-.31.41-.47l.24-.3c.12-.15.24-.3.35-.46l.24-.32.31-.47a4,4,0,0,0,.22-.34c.1-.16.2-.31.29-.47l.21-.36.12-.23c0,.1.06.2.08.3.07.29.15.57.23.86s.18.67.28,1l.27.85c.11.33.22.66.34,1s.21.56.32.83.26.65.4,1,.24.54.36.81.14.33.22.49ZM68.58,62.59c0,.39-.07.79-.12,1.18l-.09.6q-.08.54-.18,1.08c0,.2-.07.4-.11.6-.08.38-.16.75-.25,1.12l-.12.51c-.14.54-.29,1.07-.45,1.6a.17.17,0,0,0,0,0c-.16.51-.34,1-.53,1.53l-.19.49c-.1.24-.19.48-.29.71L66.17,72c-.24-.38-.47-.77-.68-1.16l-.11-.21c-.21-.39-.41-.78-.6-1.18l0-.07c-.2-.42-.37-.84-.54-1.26l-.09-.25c-.16-.41-.31-.83-.44-1.26,0-.07,0-.15-.07-.23-.13-.42-.24-.84-.35-1.27a.24.24,0,0,0,0-.08c-.1-.44-.19-.89-.27-1.34,0-.09,0-.18,0-.27-.08-.44-.14-.88-.18-1.33l0-.24c0-.45-.07-.9-.09-1.36v-.16c0-.24,0-.47,0-.71V24l2.29-1.32,3.8-2.19v38c0,.07,0,.15,0,.22v0c0,.28,0,.57,0,.87s0,.54,0,.81q0,.86-.09,1.68C68.62,62.26,68.6,62.42,68.58,62.59Zm-9-.76a1.94,1.94,0,0,1,0,.24c0,.45-.1.89-.18,1.33,0,.09,0,.18,0,.26q-.12.69-.27,1.35a.24.24,0,0,0,0,.08c-.11.43-.23.85-.35,1.28a1.87,1.87,0,0,0-.07.22c-.13.43-.28.85-.44,1.26l-.09.25c-.17.42-.34.84-.54,1.26l0,.07c-.19.4-.39.79-.6,1.18,0,.07-.07.14-.11.22-.22.38-.44.77-.68,1.15l-.06.08c-.09-.23-.19-.46-.28-.7s-.14-.34-.2-.51c-.19-.5-.37-1-.53-1.51a.14.14,0,0,0,0-.06c-.16-.53-.31-1.06-.45-1.6l-.12-.5c-.09-.38-.18-.75-.25-1.13,0-.2-.08-.4-.11-.6Q54,64.91,54,64.37l-.09-.6c0-.39-.09-.79-.12-1.19,0-.16,0-.32,0-.49q-.06-.83-.09-1.68c0-.27,0-.54,0-.81v-25l6.09,3.51V58.16c0,.14,0,.28,0,.41v.3c0,.24,0,.48,0,.73s0,.48,0,.72v.15C59.68,60.93,59.65,61.38,59.6,61.83ZM77.75,24.08v34.7c0,.28,0,.55,0,.82a6.85,6.85,0,0,0,0,.77c0,.46,0,.92,0,1.37,0,.14,0,.28,0,.42,0,.33-.05.66-.08,1,0,.17,0,.34,0,.51s-.07.61-.1.92,0,.34-.07.51-.09.65-.14,1l-.06.42c-.08.46-.16.92-.25,1.37,0,.06,0,.11,0,.17-.08.4-.17.8-.26,1.19l-.12.46c0,.19-.1.37-.14.56l-.21-.18-.21-.2-.38-.39-.16-.17-.51-.58-.06-.08-.41-.52-.15-.22L74,67.47c-.06-.08-.11-.16-.16-.24s-.17-.28-.25-.43l-.15-.24-.24-.46-.12-.23c-.1-.2-.19-.41-.28-.61l0-.09c-.1-.23-.19-.47-.28-.72a1.72,1.72,0,0,1-.07-.21c-.06-.17-.12-.35-.17-.52a2.76,2.76,0,0,1-.08-.27c0-.16-.09-.32-.13-.48s0-.19-.07-.29l-.09-.49-.06-.28c0-.18,0-.37-.07-.56l0-.21c0-.25,0-.5-.06-.76v-.21c0-.19,0-.38,0-.57v-39l.83.48Zm-9-7.89v.94l-6.09,3.52V4l6.09,3.51ZM59.72,4V21s0,.07,0,.11v.07a.28.28,0,0,1,0,.09V23a1.37,1.37,0,0,0,0,.29,2.11,2.11,0,0,0,0,.25v11.2l-6.09-3.51V7.49Zm-9,54c0,.19,0,.38,0,.58V59c0,.19,0,.38,0,.58s0,.38,0,.57v.21c0,.26,0,.51-.06.76l0,.21a5,5,0,0,1-.08.56,2.33,2.33,0,0,1,0,.28c0,.16-.06.33-.1.49L50.3,63c0,.16-.08.32-.13.48a2.76,2.76,0,0,1-.08.27c-.05.17-.11.35-.17.52a1.72,1.72,0,0,1-.07.21c-.09.25-.18.49-.28.72l0,.09c-.09.2-.18.41-.28.61l-.12.23-.24.46-.15.24c-.08.15-.16.29-.25.43l-.16.24-.29.42-.15.22-.41.52-.06.08-.51.58-.16.17-.38.39-.22.2-.2.18c-.05-.19-.1-.37-.14-.56l-.12-.46c-.09-.39-.18-.79-.26-1.18,0-.06,0-.12,0-.18-.09-.46-.17-.91-.25-1.37l-.06-.42-.15-1-.06-.51c0-.31-.07-.61-.1-.92s0-.34-.05-.51c0-.33,0-.66-.07-1,0-.14,0-.28,0-.42,0-.45,0-.91-.05-1.37,0-.27,0-.52,0-.77V38l6.09-3.52Z"/><path class="cls-1" d="M.31,119.76H.48a4.57,4.57,0,0,0,1.14,1.3,2.76,2.76,0,0,0,1.64.48A2.24,2.24,0,0,0,5,120.81,2.47,2.47,0,0,0,5.67,119a2.19,2.19,0,0,0-1.39-2l-2.59-1.15a2.77,2.77,0,0,1-1.41-2.5,3,3,0,0,1,1.13-2.49,4.21,4.21,0,0,1,2.68-.8,4.84,4.84,0,0,1,1.34.2,3,3,0,0,1,1.13.62c-.07.16-.15.38-.25.66s-.17.53-.23.75H5.92a2.39,2.39,0,0,0-.82-1.11,2.18,2.18,0,0,0-1.32-.4,2.27,2.27,0,0,0-1.53.56,1.89,1.89,0,0,0-.63,1.46,2.23,2.23,0,0,0,1.4,2c.87.39,1.75.78,2.62,1.15a2.59,2.59,0,0,1,1.41,2.36,3.66,3.66,0,0,1-1.26,2.9,4.36,4.36,0,0,1-3,1A4.8,4.8,0,0,1,1.25,122,2.82,2.82,0,0,1,0,121.27a4.5,4.5,0,0,0,.17-.66C.22,120.36.27,120.08.31,119.76Z"/><path class="cls-1" d="M9.93,110.3v6.6a5.79,5.79,0,0,0,.78,3.42,3.59,3.59,0,0,0,3,1.15,3.26,3.26,0,0,0,2.87-1.32,5.87,5.87,0,0,0,.84-3.42V110.3a1.92,1.92,0,0,0,.49.07l.48-.07v6.84A5.15,5.15,0,0,1,17.07,121a5,5,0,0,1-3.67,1.33,6.89,6.89,0,0,1-2.17-.3,4.42,4.42,0,0,1-1.6-1,3.48,3.48,0,0,1-1-1.78,8.4,8.4,0,0,1-.22-2.1V110.3l.41,0,.34,0a2,2,0,0,0,.47,0Z"/><path class="cls-1" d="M31.06,110.3v11.79h-.52a6.56,6.56,0,0,0-.89-1.07l-7.42-8.21h-.17v9.28l-.3,0-.19,0-.25,0-.23,0V110.3h.69l8.15,8.87h.17V110.3l.29,0,.18,0a1.24,1.24,0,0,0,.27,0Z"/><path class="cls-1" d="M34.05,119.76h.17a4.57,4.57,0,0,0,1.14,1.3,2.76,2.76,0,0,0,1.64.48,2.24,2.24,0,0,0,1.73-.73,2.51,2.51,0,0,0,.68-1.77A2.21,2.21,0,0,0,38,117l-2.6-1.15a2.77,2.77,0,0,1-1.41-2.5,3,3,0,0,1,1.14-2.49,4.18,4.18,0,0,1,2.67-.8,4.85,4.85,0,0,1,1.35.2,3,3,0,0,1,1.13.62c-.07.16-.15.38-.25.66s-.17.53-.23.75h-.17a2.26,2.26,0,0,0-.82-1.11,2.17,2.17,0,0,0-1.31-.4,2.24,2.24,0,0,0-1.53.56,1.89,1.89,0,0,0-.63,1.46,2.22,2.22,0,0,0,1.4,2c.87.39,1.74.78,2.62,1.15a2.6,2.6,0,0,1,1.4,2.36,3.65,3.65,0,0,1-1.25,2.9,4.36,4.36,0,0,1-3,1A4.69,4.69,0,0,1,35,122a2.77,2.77,0,0,1-1.25-.75,6.26,6.26,0,0,0,.17-.66C34,120.36,34,120.08,34.05,119.76Z"/><path class="cls-1" d="M51.88,115.25v-5l.34,0,.42,0a2.05,2.05,0,0,0,.47,0l.29,0v11.79L53,122l-.37,0a3,3,0,0,0-.42,0l-.34,0v-5.94c-.42,0-1.11,0-2.08,0l-1.53,0-2.06,0-1.58,0v5.94l-.38,0-.38,0h-.3l-.45.06V110.3l.42,0,.33,0a2.09,2.09,0,0,0,.48,0l.28,0v5c.42,0,1.12,0,2.1,0l1.54,0,2,0Z"/><path class="cls-1" d="M56.78,122.09V110.3l.34,0,.42,0a2,2,0,0,0,.47,0l.29,0v11.79l-.38,0-.38,0-.42,0Z"/><path class="cls-1" d="M71.76,110.3v11.79h-.52a6.56,6.56,0,0,0-.89-1.07l-7.42-8.21h-.17v9.28l-.29,0-.2,0-.25,0-.23,0V110.3h.69l8.15,8.87h.17V110.3l.29,0,.18,0a1.24,1.24,0,0,0,.27,0Z"/><path class="cls-1" d="M75.19,110.3h7.63l0,.52,0,.51c-.22,0-.47-.08-.76-.11a5.63,5.63,0,0,0-.78,0l-1.72,0H76.7v4.3h4.2l.77,0c.35,0,.6,0,.77,0a2.46,2.46,0,0,0-.07.46l.07.47a6.81,6.81,0,0,1-.77,0c-.34,0-.6,0-.77,0H76.7v5l.72,0c.67,0,1.29,0,1.87,0l2-.08a6.6,6.6,0,0,0,.9,0l.69-.09,0,.52,0,.51H75.19Z"/><path class="cls-1" d="M97.11,120.2l-.06,1.1a6.11,6.11,0,0,1-1.77.76,8.47,8.47,0,0,1-2,.24,5.87,5.87,0,0,1-4.43-1.67,6.21,6.21,0,0,1-1.62-4.52,5.66,5.66,0,0,1,1.87-4.47,6.72,6.72,0,0,1,4.62-1.57,8.69,8.69,0,0,1,3.68.79,4.76,4.76,0,0,0-.19.6,5.1,5.1,0,0,0-.15.7l-.14,0a3.7,3.7,0,0,0-1.51-1.08,4.18,4.18,0,0,0-1.75-.41,4.29,4.29,0,0,0-3.56,1.64,6,6,0,0,0-1.18,3.83,5.82,5.82,0,0,0,1.27,3.95,4.18,4.18,0,0,0,3.33,1.48,5.78,5.78,0,0,0,3.64-1.41Z"/><path class="cls-1" d="M99.72,122.09V110.3l.34,0,.42,0a2.05,2.05,0,0,0,.47,0l.28,0v11.79l-.37,0-.38,0a3.07,3.07,0,0,0-.42,0Z"/><path class="cls-1" d="M108.65,111.13v11l-.38-.05h-.37a3.1,3.1,0,0,0-.43,0l-.33,0v-11c-.89,0-1.53,0-1.9,0s-1,.07-1.88.16a2.4,2.4,0,0,1,0-.24,1.14,1.14,0,0,0,0-.27,1.32,1.32,0,0,0,0-.27c0-.09,0-.18,0-.25h8.87l0,.52,0,.51c-.44,0-1-.1-1.6-.14S109.34,111.13,108.65,111.13Z"/><path class="cls-1" d="M119.34,116.8v5.29l-.38,0-.37,0a3.11,3.11,0,0,0-.43,0l-.33,0v-5l-4.23-6.81.6,0,.37,0,.5,0,.45,0c.33.66.88,1.67,1.66,3s1.31,2.29,1.61,2.74a20.39,20.39,0,0,0,1.67-2.77c.56-1,1.1-2,1.6-3l.36,0,.33,0,.34,0,.3,0c-.44.59-.84,1.16-1.2,1.72l-1.88,3.06a7.17,7.17,0,0,0-.54.86A6.85,6.85,0,0,0,119.34,116.8Z"/><path class="cls-1" d="M25.38,127.84h-.23a2.6,2.6,0,0,0-.77-1.12,1.93,1.93,0,0,0-1.23-.39,2,2,0,0,0-1.42.46,1.66,1.66,0,0,0-.47,1.22c0,.62.45,1.18,1.34,1.67,1.6.88,2.45,1.36,2.53,1.43a3.33,3.33,0,0,1,1.35,2.74,3.39,3.39,0,0,1-1.27,2.72A4.9,4.9,0,0,1,22,137.64a6.14,6.14,0,0,1-1.49-.18,4.35,4.35,0,0,1-1.3-.58c.11-.37.2-.74.3-1.13s.17-.73.22-1H20a2.35,2.35,0,0,0,2.37,1.88,2.16,2.16,0,0,0,1.41-.44,1.65,1.65,0,0,0,.62-1.34A2.09,2.09,0,0,0,23.07,133l-2.46-1.31a3.3,3.3,0,0,1-1.34-2.79,3.46,3.46,0,0,1,1-2.54,4,4,0,0,1,3-1.07,5,5,0,0,1,1.62.26,3.56,3.56,0,0,1,1.1.57c-.11.28-.21.58-.31.92S25.44,127.65,25.38,127.84Z"/><path class="cls-1" d="M38,133.82H34c-.23.65-.39,1.12-.48,1.39-.34.95-.58,1.68-.72,2.18l-.36,0a3,3,0,0,0-.44,0,3.47,3.47,0,0,0-.44,0l-.38,0,4.91-11.92a1.73,1.73,0,0,0,.32,0h.77l.22,0,4.78,12-.54,0-.94-.08h-.54l-.94.09C38.8,136,38.4,134.83,38,133.82Zm-3.54-1.07h3.13l-1.52-4Z"/><path class="cls-1" d="M48.51,137.43V125.6a5,5,0,0,1,.64.06c.29,0,.5,0,.64,0s.36,0,.65,0a5.13,5.13,0,0,1,.65-.06v11.83c-.15,0-.36,0-.65-.05a4.84,4.84,0,0,0-.65,0,4.72,4.72,0,0,0-.64,0C48.87,137.41,48.65,137.43,48.51,137.43Z"/><path class="cls-1" d="M69.44,132.1v4.75c-.88.25-1.68.44-2.41.58a11.29,11.29,0,0,1-2.16.21,7.68,7.68,0,0,1-4.79-1.41A5.3,5.3,0,0,1,58,131.75a6,6,0,0,1,2.06-4.82,7.54,7.54,0,0,1,5-1.64,8.92,8.92,0,0,1,2.18.26,6.67,6.67,0,0,1,1.94.81,6.45,6.45,0,0,0-.48,1.72h-.24a4,4,0,0,0-1.45-1.3,4.16,4.16,0,0,0-1.91-.45A3.7,3.7,0,0,0,61.92,128a6.47,6.47,0,0,0-1.07,3.83,5.23,5.23,0,0,0,1.08,3.5,3.77,3.77,0,0,0,3,1.27,3.92,3.92,0,0,0,1.06-.12,4.28,4.28,0,0,0,.84-.35v-4c.14,0,.36,0,.65,0l.65,0,.72,0Z"/><path class="cls-1" d="M86.61,131.41a6.58,6.58,0,0,1-1.49,4.37,5.09,5.09,0,0,1-4.07,1.86A4.84,4.84,0,0,1,77.22,136a7.57,7.57,0,0,1,0-8.9,5.16,5.16,0,0,1,4.14-1.82,4.63,4.63,0,0,1,4.12,2.07A7,7,0,0,1,86.61,131.41Zm-5.32-5.08A2.54,2.54,0,0,0,79,127.74a8.74,8.74,0,0,0-.82,4.26,6.58,6.58,0,0,0,.67,3.14,2.43,2.43,0,0,0,2.25,1.46,2.66,2.66,0,0,0,2.43-1.67,8.34,8.34,0,0,0,.77-3.82,6.83,6.83,0,0,0-.69-3.23A2.48,2.48,0,0,0,81.29,126.33Z"/><path class="cls-1" d="M92.93,137.39V125.6h1.72l7.43,8.05V125.6l.36.05a1.33,1.33,0,0,0,.32,0l.69-.07v11.83l-1.48,0q-1.45-1.62-2.9-3.26-1.23-1.38-2.87-3.13l-1.89-2v8.35l-.36,0h-.33Z"/></svg>